<svg width="294" height="251" viewBox="0 0 294 251" fill="none" xmlns="http://www.w3.org/2000/svg">
<path d="M184.839 187.711L187.438 188.177C190.2 188.669 192.038 191.308 191.545 194.069L191.068 196.736C190.575 199.497 187.936 201.335 185.175 200.842L182.575 200.377C179.814 199.884 177.976 197.245 178.469 194.484L178.945 191.818C179.439 189.056 182.077 187.218 184.839 187.711ZM202.133 115.958C208.888 117.165 213.566 120.501 216.168 125.964C218.239 130.279 218.815 135.014 217.894 140.168C216.353 148.79 210.983 156.292 201.784 162.673C198.576 164.897 196.563 167.794 195.741 171.362C195.438 172.545 195.154 173.871 194.893 175.338C194.399 178.099 191.761 179.937 188.999 179.443L186.399 178.979C183.638 178.485 181.8 175.847 182.293 173.086V173.085C183.699 165.219 186.676 159.722 191.226 156.59C196.142 153.203 199.766 149.472 202.101 145.394C203.442 143.02 204.364 140.433 204.864 137.633C205.38 134.744 205.141 132.363 204.146 130.487C203.064 128.323 201.137 127.176 198.364 127.047C195.774 126.906 193.638 128.336 191.956 131.337C191.87 131.481 191.788 131.63 191.706 131.782C190.514 134 187.865 134.998 185.501 134.133L183.184 133.284C180.315 132.235 179.007 128.899 180.409 126.185C181.8 123.487 183.637 121.199 185.918 119.319C188.389 117.285 191.544 116.059 195.379 115.644C197.392 115.409 199.644 115.512 202.133 115.958Z" fill="#AEDBED"/>
<path d="M86.1177 198.352L88.2766 198.455C90.5695 198.564 92.3406 200.511 92.2307 202.804L92.1254 205.019C92.0162 207.312 90.0686 209.082 87.7758 208.974L85.6168 208.871C83.324 208.761 81.5536 206.814 81.6628 204.521L81.768 202.306C81.8772 200.013 83.8248 198.243 86.1177 198.352ZM92.5844 138.291C98.1935 138.558 102.342 140.772 105.03 144.932C107.166 148.215 108.133 151.997 107.929 156.277C107.589 163.438 104.022 170.093 97.229 176.242C94.8603 178.386 93.5319 180.949 93.2416 183.932C93.1193 184.924 93.0295 186.03 92.9715 187.248C92.8623 189.541 90.9155 191.311 88.6218 191.203L86.4629 191.1C84.1693 190.99 82.3997 189.043 82.5081 186.75C82.8192 180.217 84.6562 175.441 88.0181 172.42C91.6501 169.152 94.1984 165.742 95.663 162.185C96.5013 160.116 96.9758 157.92 97.0865 155.595C97.2011 153.197 96.7552 151.288 95.7497 149.872C94.6435 148.229 92.9583 147.502 90.6941 147.689C88.5777 147.848 86.9947 149.233 85.9458 151.847C85.8924 151.974 85.8405 152.103 85.7902 152.234C85.0571 154.16 83.0128 155.249 81.0032 154.797L79.0324 154.353C76.5925 153.803 75.1797 151.235 76.0305 148.884C76.8758 146.547 78.1244 144.497 79.7771 142.73C81.5691 140.819 83.9997 139.491 87.069 138.75C88.6784 138.346 90.5168 138.192 92.5844 138.291Z" fill="#AEDBED"/>
<path d="M124.199 111.93L125.845 111.641C127.594 111.334 129.26 112.503 129.566 114.251L129.863 115.94C130.169 117.688 129.001 119.354 127.252 119.661L125.606 119.949C123.858 120.257 122.191 119.088 121.885 117.339L121.588 115.652C121.282 113.903 122.451 112.236 124.199 111.93ZM118.884 65.5238C123.161 64.773 126.666 65.739 129.399 68.4213C131.568 70.5353 132.94 73.2245 133.513 76.4881C134.471 81.9478 132.909 87.5731 128.829 93.3656C127.406 95.3844 126.838 97.5434 127.126 99.8424C127.202 100.613 127.322 101.462 127.485 102.39C127.792 104.139 126.623 105.805 124.875 106.111L123.229 106.4C121.48 106.707 119.814 105.538 119.507 103.79C118.633 98.809 119.208 94.8944 121.232 92.045C123.417 88.9634 124.761 85.9576 125.262 83.0268C125.543 81.3238 125.528 79.586 125.217 77.8133C124.896 75.9841 124.236 74.621 123.237 73.723C122.124 72.671 120.729 72.4078 119.053 72.9342C117.483 73.4126 116.524 74.7262 116.177 76.8767C116.157 76.9812 116.14 77.0872 116.125 77.1956C115.899 78.7724 114.541 79.9421 112.948 79.9413L111.387 79.9405C109.453 79.9398 107.951 78.2422 108.194 76.324C108.435 74.4182 109.029 72.6594 109.976 71.047C111.004 69.2999 112.612 67.8864 114.801 66.8057C115.946 66.2283 117.307 65.8002 118.884 65.5238Z" fill="#AEDBED"/>
<path d="M3.73966 161.527L4.83267 161.809C5.99304 162.11 6.68972 163.294 6.38937 164.454L6.09909 165.574C5.79874 166.736 4.61438 167.432 3.45402 167.132L2.361 166.849C1.20063 166.548 0.50395 165.365 0.804298 164.204L1.09458 163.083C1.39493 161.923 2.57929 161.226 3.73966 161.527ZM13.453 131.518C16.2916 132.254 18.1757 133.828 19.1062 136.241C19.8477 138.147 19.9383 140.183 19.3771 142.35C18.4389 145.973 15.9061 148.994 11.7778 151.412C10.3388 152.255 9.38588 153.423 8.91911 154.917C8.75113 155.411 8.58702 155.966 8.42756 156.583C8.12721 157.743 6.94285 158.44 5.78248 158.139L4.69024 157.857C3.52988 157.556 2.83242 156.372 3.13277 155.212C3.98891 151.905 5.43724 149.661 7.47852 148.475C9.68314 147.192 11.3498 145.721 12.4776 144.06C13.1263 143.092 13.6039 142.02 13.9081 140.843C14.2224 139.63 14.1984 138.607 13.8354 137.775C13.446 136.818 12.6618 136.266 11.4844 136.121C10.386 135.975 9.42923 136.514 8.61411 137.739C8.57309 137.798 8.53283 137.859 8.49336 137.921C7.91279 138.826 6.75165 139.165 5.77242 138.72L4.81332 138.282C3.62509 137.74 3.17612 136.277 3.86274 135.167C4.54394 134.063 5.40086 133.148 6.4335 132.421C7.55361 131.635 8.93769 131.216 10.5857 131.164C11.4512 131.13 12.4072 131.248 13.453 131.518Z" fill="#AEDBED"/>
<path d="M46.6705 166.315L50.044 165.449C53.6265 164.528 57.2764 166.687 58.1968 170.27L59.0847 173.729C60.0051 177.312 57.8461 180.962 54.2636 181.882L50.8901 182.748C47.3076 183.668 43.6578 181.509 42.7374 177.927L41.8495 174.467C40.9291 170.884 43.088 167.234 46.6705 166.315ZM28.1295 70.7686C36.893 68.5183 44.3312 69.9589 50.4435 75.088C55.2908 79.1303 58.5738 84.4948 60.2915 91.183C63.1641 102.37 60.8295 114.308 53.2882 127C50.6587 131.425 49.8288 136.002 50.7972 140.732C51.0805 142.318 51.4668 144.063 51.956 145.966C52.8757 149.549 50.7175 153.199 47.135 154.118L43.7607 154.984C40.179 155.905 36.5284 153.747 35.6088 150.164C32.9877 139.957 33.5497 131.731 37.2924 125.484C41.3347 118.73 43.64 112.269 44.2074 106.099C44.517 102.516 44.2051 98.9084 43.2723 95.2756C42.3101 91.529 40.7193 88.8026 38.4992 87.0981C36.0167 85.0939 33.0759 84.7727 29.6777 86.1367C26.4954 87.3845 24.715 90.2688 24.3403 94.791C24.3186 95.0108 24.3 95.2353 24.2853 95.4621C24.0694 98.7745 21.439 101.423 18.129 101.679L14.884 101.93C10.868 102.242 7.47283 98.9572 7.66713 94.9327C7.86065 90.9352 8.81046 87.184 10.5166 83.6812C12.3682 79.8874 15.4816 76.6904 19.8552 74.0918C22.1419 72.7069 24.8992 71.5984 28.1295 70.7686Z" fill="#AEDBED"/>
<path d="M267.446 168.543L269.83 167.931C272.362 167.28 274.941 168.806 275.591 171.337L276.219 173.783C276.869 176.314 275.344 178.893 272.812 179.543L270.428 180.156C267.897 180.806 265.317 179.28 264.667 176.749L264.039 174.304C263.389 171.772 264.914 169.193 267.446 168.543ZM254.344 101.023C260.537 99.4327 265.793 100.451 270.112 104.076C273.538 106.931 275.858 110.723 277.072 115.449C279.102 123.354 277.452 131.791 272.123 140.76C270.265 143.886 269.678 147.121 270.363 150.464C270.563 151.585 270.836 152.818 271.181 154.163C271.831 156.694 270.306 159.273 267.774 159.923L265.39 160.536C262.859 161.186 260.28 159.66 259.629 157.129C257.777 149.917 258.174 144.104 260.819 139.689C263.676 134.916 265.304 130.35 265.706 125.989C265.924 123.458 265.704 120.908 265.045 118.341C264.365 115.693 263.241 113.767 261.672 112.562C259.917 111.146 257.84 110.919 255.438 111.882C253.189 112.764 251.931 114.803 251.666 117.998C251.65 118.154 251.638 118.312 251.627 118.472C251.475 120.814 249.616 122.685 247.276 122.866L244.984 123.044C242.145 123.264 239.746 120.943 239.884 118.099C240.02 115.274 240.691 112.623 241.897 110.147C243.206 107.466 245.406 105.207 248.497 103.371C250.112 102.392 252.061 101.609 254.344 101.023Z" fill="#AEDBED"/>
<path d="M256.543 56.5234L257.86 56.1851C259.26 55.8259 260.686 56.6681 261.045 58.0677L261.392 59.4192C261.752 60.8188 260.908 62.2447 259.509 62.6031L258.191 62.9421C256.791 63.3013 255.365 62.4583 255.007 61.0588L254.659 59.7072C254.3 58.3084 255.143 56.8825 256.543 56.5234ZM249.3 19.202C252.723 18.3227 255.629 18.8854 258.016 20.8896C259.91 22.4679 261.192 24.5634 261.863 27.176C262.985 31.5449 262.074 36.2089 259.127 41.1661C258.101 42.8955 257.777 44.6821 258.154 46.5298C258.265 47.1499 258.416 47.8311 258.607 48.5742C258.966 49.9738 258.123 51.3996 256.724 51.7588L255.406 52.0971C254.007 52.4563 252.581 51.6133 252.222 50.2145C251.198 46.2272 251.417 43.0147 252.88 40.574C254.459 37.9359 255.359 35.4123 255.581 33.0018C255.701 31.603 255.58 30.1934 255.215 28.7745C254.84 27.3107 254.218 26.2463 253.35 25.5798C252.381 24.798 251.232 24.6718 249.905 25.2044C248.662 25.692 247.967 26.8191 247.82 28.5848C247.812 28.6715 247.804 28.759 247.799 28.8472C247.714 30.1415 246.687 31.1757 245.394 31.2756L244.126 31.3739C242.558 31.4954 241.232 30.2127 241.308 28.6406C241.384 27.0792 241.754 25.6139 242.421 24.246C243.144 22.7636 244.36 21.5143 246.068 20.5002C246.962 19.9591 248.039 19.5256 249.3 19.202Z" fill="#AEDBED"/>
<path d="M79.7433 79.7947C79.7433 79.7947 87.3681 42.6212 69.9944 44.4527L53.3855 79.0345C53.3855 79.0345 64.5185 83.5978 79.7433 79.7947Z" fill="#361710"/>
<path d="M41.0332 79.7947C41.0332 79.7947 36.8067 49.65 49.9198 42.0004L67.3911 79.0345C67.3911 79.0345 56.2589 83.5978 41.0332 79.7947Z" fill="#361710"/>
<path d="M14.1171 71.4586H16.1391C18.2864 71.4586 20.0273 73.1995 20.0273 75.346V77.4198C20.0273 79.5679 18.2864 81.3081 16.1391 81.3081H14.1171C11.9698 81.3081 10.2296 79.5679 10.2296 77.4198V75.346C10.2296 73.1995 11.9698 71.4586 14.1171 71.4586ZM17.4875 15.0566C22.7397 15.0566 26.7139 16.94 29.4101 20.7067C31.5528 23.6793 32.6241 27.1696 32.6241 31.1787C32.6241 37.8839 29.5874 44.26 23.5154 50.308C21.3975 52.4159 20.2704 54.8698 20.1318 57.6697C20.0622 58.6024 20.0273 59.6382 20.0273 60.7792C20.0273 62.9273 18.2864 64.6674 16.1391 64.6674H14.1171C11.9698 64.6674 10.2296 62.9273 10.2296 60.7792C10.2296 54.6623 11.7329 50.1184 14.7395 47.1459C17.9876 43.9311 20.2162 40.6311 21.4269 37.2437C22.1174 35.2744 22.4634 33.2006 22.4634 31.0231C22.4634 28.7767 21.9625 27.0148 20.9601 25.736C19.8539 24.2505 18.2469 23.6444 16.1391 23.9208C14.169 24.1631 12.7516 25.5286 11.8885 28.0165C11.8436 28.1373 11.801 28.2603 11.76 28.3857C11.1609 30.218 9.29917 31.3265 7.4011 30.9937L5.54018 30.6662C3.23648 30.2606 1.80209 27.9244 2.49258 25.6896C3.17843 23.4695 4.25441 21.4979 5.719 19.7732C7.30898 17.9076 9.52056 16.5599 12.3553 15.7309C13.8408 15.2819 15.5507 15.0566 17.4875 15.0566Z" fill="#FCC822"/>
<path d="M62.4905 224.171C62.4905 224.171 61.5283 227.889 59.7975 227.328C56.5618 226.283 56.3729 224.171 56.3729 224.171C56.3729 224.171 54.3324 230.323 54.721 233.253C55.1096 236.183 54.721 242.771 54.721 242.771H57.6741C57.6741 242.771 60.4361 243.107 61.581 244.772C62.7266 246.437 69.0006 245.943 70.9893 244.875C73.5368 243.507 66.8502 236.546 64.4846 232.667C62.119 228.788 62.4905 224.171 62.4905 224.171Z" fill="#1C0906"/>
<path d="M56.964 169.418C59.0045 164.377 66.2841 164.434 68.0792 169.565C68.4028 170.49 68.6373 171.459 68.7906 172.439C69.5453 177.251 68.7875 184.964 66.8004 194.816C64.1189 208.107 62.6698 234.621 58.0137 235.011C53.3567 235.401 56.0939 213.106 55.9964 199.922C55.8996 186.738 53.822 177.179 56.7705 169.898L56.964 169.418Z" fill="#CF9166"/>
<path d="M59.643 207.449C59.0059 190.058 60.1632 177.157 57.3888 167.987L57.2069 167.384C55.2864 161.037 49.4157 162.167 48.2445 169.192C48.0339 170.458 47.8977 171.768 47.8265 173.083C47.4797 179.535 48.5092 189.591 50.6472 202.287C53.5331 219.417 54.2344 235.173 58.0135 235.011C61.7919 234.849 60.2801 224.841 59.643 207.449Z" fill="#EDAC7C"/>
<path d="M54.367 227.229C54.367 227.229 55.1907 233.797 57.4827 233.4C59.7369 233.009 60.4839 227.229 60.4839 227.229C60.4839 227.229 62.5252 233.381 62.1366 236.311C61.9175 237.962 61.9454 240.774 62.0112 242.915C62.0599 244.511 60.7804 245.828 59.1834 245.828C59.1834 245.828 56.4215 246.164 55.2758 247.829C54.1309 249.495 47.8569 249.001 45.8683 247.933C43.32 246.565 50.0073 239.605 52.373 235.726C54.7386 231.846 54.367 227.229 54.367 227.229Z" fill="#361710"/>
<path d="M73.9014 127.571L59.117 124.894V124.791L58.8337 124.843L58.5496 124.791V124.894L43.766 127.571C43.766 127.571 38.5378 135.358 39.5611 144.518C40.5837 153.677 45.2987 203.214 45.2987 203.214H70.7493C70.7493 203.214 77.0829 153.677 78.1063 144.518C79.1288 135.358 73.9014 127.571 73.9014 127.571Z" fill="#195172"/>
<path d="M75.6632 130.87C74.7304 128.807 73.9014 127.57 73.9014 127.57L59.117 124.893V124.79L58.8336 124.842L58.5503 124.79V124.893L43.7659 127.57C43.7659 127.57 42.9369 128.807 42.0049 130.87H75.6632Z" fill="#0D435E"/>
<path d="M62.0129 203.213L62.1856 153.726L66.4237 203.213" fill="#0D435E"/>
<path d="M39.4388 141.562C40.8732 141.52 43.29 141.235 46.7881 140.129C52.9212 138.19 52.9731 130.094 52.9731 130.094L52.809 125.934L43.766 127.572C43.766 127.572 39.6262 133.744 39.4388 141.562Z" fill="#0D435E"/>
<path d="M78.2288 141.563C78.0422 133.744 73.9016 127.571 73.9016 127.571L64.2363 125.821L63.9894 130.093C63.9894 130.093 64.0412 138.189 70.1744 140.128C74.3313 141.444 76.9616 141.599 78.2288 141.563Z" fill="#0D435E"/>
<path d="M44.5917 85.5763L55.0946 81.308L63.3371 81.397L76.2157 86.7684C76.2157 86.7684 69.5027 109.844 69.9447 115.798C70.3867 121.753 73.9011 128.491 73.9011 128.491H44.5917C44.5917 128.491 49.8392 117.874 48.6874 111.611C47.5348 105.347 44.5917 85.5763 44.5917 85.5763Z" fill="#5C93BC"/>
<path d="M69.2326 49.5001C65.6687 42.8321 46.828 40.4704 43.364 61.4343C40.8381 76.7118 58.0261 80.3144 66.7385 77.5169C81.5608 72.7577 72.7973 56.1682 69.2326 49.5001Z" fill="#3E150D"/>
<path d="M72.2997 63.6833C72.2997 63.6833 74.9633 60.2626 77.4149 62.5098C79.8672 64.7585 76.3629 71.6851 71.6672 70.0556L72.2997 63.6833Z" fill="#EDAC7C"/>
<path d="M72.0604 66.0975L71.7338 69.3781C75.7954 70.1073 78.1131 64.4518 76.2452 63.6677C74.7341 63.0337 72.8593 65.0177 72.0604 66.0975Z" fill="#F7A588"/>
<path d="M76.8996 64.8395C76.8996 64.8395 76.8919 64.8139 76.8795 64.7667C76.8671 64.7203 76.8447 64.6537 76.8184 64.5701C76.7572 64.4075 76.6527 64.1722 76.4538 64.0035C76.4042 63.9609 76.3462 63.9268 76.2866 63.8982C76.2556 63.885 76.2254 63.8703 76.1906 63.8595L76.1681 63.8517L76.1666 63.851C76.1844 63.8571 76.1704 63.8525 76.1735 63.8541L76.1704 63.8525L76.1612 63.851L76.1457 63.8471L76.0814 63.8293C76.035 63.8153 76.0001 63.8107 75.9653 63.8053C75.932 63.7991 75.8949 63.7937 75.8515 63.7913C75.8128 63.789 75.7726 63.7867 75.7331 63.7875C75.6905 63.7875 75.6503 63.7859 75.6085 63.7913C75.2748 63.8146 74.9218 63.9446 74.5859 64.125C74.4148 64.2125 74.2522 64.3185 74.0912 64.4253C73.9325 64.5337 73.7762 64.6459 73.6283 64.759C73.3334 64.9873 73.0648 65.2172 72.8326 65.4154C72.3689 65.8249 72.0608 66.0981 72.0608 66.0981C72.0608 66.0981 72.1003 66.0014 72.187 65.8404C72.2752 65.6809 72.4076 65.4556 72.5926 65.2033C72.6863 65.0779 72.7884 64.9409 72.9076 64.8054C73.0261 64.6692 73.1577 64.5291 73.3017 64.392C73.5904 64.1188 73.9287 63.8494 74.3188 63.6412C74.5139 63.5382 74.7206 63.4492 74.9365 63.3888C75.1533 63.3284 75.3809 63.2959 75.603 63.3044C75.658 63.3052 75.7122 63.3099 75.7679 63.3176C75.8221 63.3207 75.8747 63.3331 75.9274 63.3447C75.9792 63.3548 76.0319 63.3702 76.0853 63.388C76.1403 63.4051 76.1913 63.4221 76.227 63.4415L76.2881 63.4701L76.3268 63.4879L76.3616 63.5065C76.4073 63.5305 76.4491 63.5591 76.4894 63.5893C76.5676 63.6512 76.6364 63.7194 76.6899 63.7913C76.8021 63.9322 76.8571 64.084 76.8888 64.2148C76.9221 64.3448 76.926 64.4609 76.9275 64.5523C76.9275 64.6444 76.9167 64.7179 76.9113 64.7659C76.9035 64.8147 76.8996 64.8395 76.8996 64.8395Z" fill="#CF9166"/>
<path d="M47.6041 63.4155C47.6041 63.4155 45.0148 59.9399 42.516 62.1336C40.0149 64.3274 43.3698 71.3291 48.1003 69.801L47.6041 63.4155Z" fill="#EDAC7C"/>
<path d="M47.7918 65.8367L48.0472 69.1235C43.9716 69.766 41.7763 64.0617 43.6612 63.3178C45.1839 62.7171 47.0169 64.7398 47.7918 65.8367Z" fill="#F7A588"/>
<path d="M42.9819 64.4745C42.9819 64.4745 42.9889 64.4505 43.0028 64.4033C43.0167 64.3561 43.04 64.2903 43.0694 64.2067C43.1321 64.0449 43.2412 63.8127 43.4456 63.6478C43.4951 63.6068 43.5524 63.5742 43.6143 63.5464C43.6461 63.5348 43.6763 63.5201 43.7088 63.5108L43.7351 63.503L43.7366 63.5023C43.7173 63.5092 43.7328 63.503 43.7289 63.5046H43.7328L43.7405 63.5015L43.756 63.4976L43.8218 63.4821C43.8667 63.469 43.9031 63.4651 43.9379 63.4605C43.972 63.4543 44.0099 63.4512 44.0517 63.4496C44.0912 63.4473 44.1299 63.4457 44.1709 63.4481C44.2119 63.4481 44.253 63.4488 44.2948 63.455C44.6269 63.4844 44.9783 63.6215 45.3104 63.8103C45.4784 63.9025 45.6401 64.0101 45.7988 64.1208C45.9544 64.233 46.1085 64.3483 46.254 64.4652C46.5443 64.6998 46.8075 64.9351 47.0358 65.1371C47.4902 65.5575 47.7921 65.8369 47.7921 65.8369C47.7921 65.8369 47.7542 65.7394 47.6706 65.5768C47.5878 65.4158 47.4593 65.1867 47.2789 64.9305C47.1891 64.8035 47.0885 64.6642 46.9724 64.5264C46.8562 64.3878 46.7301 64.2446 46.5884 64.1037C46.3059 63.8258 45.9738 63.5487 45.5883 63.3312C45.3963 63.2259 45.1896 63.1322 44.9744 63.0672C44.7592 63.0014 44.5332 62.9643 44.3118 62.9674C44.2553 62.9666 44.2011 62.972 44.1461 62.9774C44.0912 62.9797 44.0385 62.989 43.9844 63.0014C43.934 63.0092 43.8814 63.0231 43.8264 63.0409C43.7723 63.0571 43.7212 63.0726 43.684 63.092L43.6229 63.1175L43.5841 63.1353L43.5485 63.1531C43.5021 63.1756 43.4587 63.2042 43.4177 63.2329C43.3395 63.294 43.2699 63.3598 43.2134 63.4303C43.0988 63.5704 43.0407 63.7205 43.0059 63.849C42.9695 63.9791 42.9633 64.0944 42.9602 64.1873C42.9579 64.2802 42.9664 64.353 42.9718 64.401C42.978 64.449 42.9819 64.4745 42.9819 64.4745Z" fill="#CF9166"/>
<path d="M62.7868 74.2027L56.101 74.1292C56.101 74.1292 55.7309 84.5957 55.7062 84.5957C55.7062 84.5957 56.1745 86.6888 59.14 86.767C62.1064 86.8444 62.8611 84.6716 62.8611 84.6716C62.8371 84.6143 62.7868 74.2027 62.7868 74.2027Z" fill="#EDAC7C"/>
<path d="M62.8612 78.0555L55.8913 77.8224C55.8913 77.8224 55.8518 81.6743 55.827 81.6743C55.827 81.6743 56.2017 84.122 59.168 84.2002C62.1343 84.2776 62.8318 82.0289 62.8318 82.0289C62.8086 81.9708 62.8612 78.0555 62.8612 78.0555Z" fill="#CF9166"/>
<path d="M62.7659 76.1274L56.08 76.0546C56.08 76.0546 55.9809 77.3907 55.8919 78.5278C55.878 78.6919 57.7962 79.0039 58.0044 79.0387C59.6378 79.3158 61.2517 79.1231 62.8487 78.7345C62.8092 77.5703 62.7659 76.1274 62.7659 76.1274Z" fill="#CF9166"/>
<path d="M75.7095 60.9586C75.6198 69.2956 68.3131 75.9768 59.3901 75.8808C50.4672 75.7848 43.3068 68.9473 43.3958 60.6103C43.4856 52.2718 50.7923 45.5906 59.716 45.6866C68.6382 45.7833 75.8001 52.6201 75.7095 60.9586Z" fill="#3E150D"/>
<path d="M73.9939 60.7354C73.8824 56.0893 71.9325 51.6824 67.3622 49.83C65.0384 48.8871 62.4785 48.6154 59.9805 48.6286C57.5127 48.6425 54.8839 48.7741 52.5546 49.6426C48.3838 51.2009 47.2513 48.658 46.783 52.8961C46.7366 53.3111 46.1854 55.0861 45.6203 60.4296C45.5189 61.3817 45.4926 62.3277 45.5174 63.2891C45.5746 65.4488 45.8943 67.6178 46.5771 69.6754C47.4038 72.1718 48.8049 74.4956 50.8609 76.2025C52.029 77.1732 53.3775 77.921 54.8096 78.4443C57.1744 79.3059 59.4324 79.607 61.9196 79.1766C63.6056 78.8855 65.2521 78.3529 66.7383 77.5177C69.2046 76.1321 71.0639 73.9569 72.2375 71.4318C73.2237 69.3069 73.7508 66.9893 73.9606 64.6693C74.0752 63.399 74.1139 62.1071 74.0032 60.8368C74.0001 60.8027 73.9947 60.7694 73.9939 60.7354Z" fill="#EDAC7C"/>
<path d="M64.124 65.1298C64.0582 66.4488 64.9879 67.5658 66.1994 67.6255C67.4116 67.6851 68.4465 66.6625 68.5131 65.3427C68.5789 64.0236 67.6508 62.9066 66.4378 62.8478C65.2263 62.7881 64.1898 63.8107 64.124 65.1298Z" fill="#CF9166"/>
<path d="M64.1516 64.5719C64.085 65.8917 65.0147 67.0079 66.2261 67.0683C67.4391 67.1279 68.4741 66.1054 68.5399 64.7863C68.6072 63.4672 67.6783 62.3487 66.4653 62.2899C65.2539 62.2318 64.2174 63.2528 64.1516 64.5719Z" fill="black"/>
<path d="M64.9372 63.9615C64.9132 64.4391 65.2887 64.8463 65.774 64.8695C66.2609 64.8935 66.6743 64.5258 66.6975 64.0474C66.7223 63.5698 66.3469 63.1642 65.8615 63.1402C65.3754 63.1154 64.9612 63.4839 64.9372 63.9615Z" fill="white"/>
<path d="M51.0365 64.6146C50.9707 65.9337 51.8996 67.0507 53.1111 67.1103C54.3241 67.1699 55.359 66.1466 55.4248 64.8283C55.4914 63.5092 54.5633 62.3915 53.3503 62.3326C52.1396 62.2746 51.1023 63.2948 51.0365 64.6146Z" fill="#CF9166"/>
<path d="M51.0648 64.0563C50.9982 65.3761 51.9286 66.4924 53.1393 66.5528C54.3523 66.6116 55.3873 65.5906 55.4531 64.27C55.5204 62.9517 54.5908 61.8331 53.3785 61.7751C52.1678 61.7162 51.1306 62.738 51.0648 64.0563Z" fill="black"/>
<path d="M51.8504 63.4463C51.8272 63.924 52.2003 64.3311 52.6872 64.3544C53.1733 64.3784 53.5875 64.0107 53.6115 63.5315C53.6347 63.0539 53.2608 62.6475 52.7731 62.6243C52.2878 62.6003 51.8744 62.968 51.8504 63.4463Z" fill="white"/>
<path d="M58.7697 63.1601C58.7697 63.1601 59.0918 66.0645 57.7239 65.823C55.0765 65.3601 55.0696 71.0334 59.067 68.9209C60.5757 68.1244 60.0787 63.1996 60.0787 63.1996L58.7697 63.1601Z" fill="#F48470"/>
<path d="M55.9648 71.4756C55.9648 71.4756 61.2914 72.3619 63.8227 69.3096C63.8227 69.3096 65.9506 75.0116 60.2316 75.7439C56.619 76.2037 55.9648 71.4756 55.9648 71.4756Z" fill="#B43128"/>
<path d="M57.7759 75.0718C58.3812 75.5711 59.1809 75.8768 60.2313 75.7437C61.5287 75.5765 62.4204 75.1546 63.0281 74.6035C63.2023 74.437 63.3571 74.259 63.498 74.074C63.5018 74.0701 63.5049 74.0655 63.5073 74.0616C63.5104 74.0585 63.5104 74.0569 63.5119 74.0554C63.9477 73.4384 64.135 72.7317 64.1908 72.0551C60.9767 71.2145 58.6731 73.7272 57.7759 75.0718Z" fill="#F05736"/>
<path d="M55.9648 71.476C55.9648 71.476 55.9718 71.517 55.9834 71.589C56.5021 71.6958 57.4619 72.8229 58.7539 72.778C59.5713 72.7509 60.3725 72.5249 61.1079 72.1788C61.5646 71.9644 62.0353 71.7577 62.4301 71.4411C62.7327 71.1996 62.9503 70.4836 63.078 70.0408C60.3772 72.209 55.9656 71.476 55.9648 71.476Z" fill="white"/>
<path d="M56.321 71.8108C56.5516 72.8775 57.4426 75.8121 60.1953 75.4599C61.7203 75.2664 62.7916 74.6843 63.3799 73.7337C64.1919 72.4208 63.9016 70.6985 63.6919 69.8795C61.4037 72.1491 57.5758 71.9478 56.321 71.8108ZM59.7014 76.0583C56.3426 76.0227 55.6847 71.5631 55.6792 71.5143C55.6661 71.4261 55.697 71.3355 55.7636 71.2728C55.8302 71.2101 55.9215 71.1807 56.0136 71.1962C56.0647 71.2039 61.2063 72.0175 63.5982 69.1301C63.664 69.052 63.7677 69.0117 63.8707 69.0295C63.9736 69.0465 64.0588 69.1162 64.0952 69.213C64.137 69.3252 65.117 72.0152 63.8769 74.0271C63.1934 75.1332 61.9796 75.8075 60.2696 76.025C60.0707 76.0505 59.8833 76.0606 59.7014 76.0583Z" fill="#F05B4E"/>
<path d="M53.8923 71.1647C53.8791 72.3824 52.865 73.3585 51.6265 73.3446C50.388 73.3314 49.3932 72.3336 49.4056 71.116C49.4196 69.8983 50.4344 68.923 51.6729 68.9354C52.9115 68.9501 53.9054 69.9471 53.8923 71.1647Z" fill="#F49B77"/>
<path d="M69.9942 69.9208C69.981 71.1384 68.9662 72.1153 67.7261 72.1014C66.4891 72.0883 65.4952 71.0912 65.5076 69.8728C65.5215 68.6559 66.5356 67.6798 67.7741 67.693C69.0127 67.7069 70.0074 68.7047 69.9942 69.9208Z" fill="#F49B77"/>
<path d="M49.5264 58.5898C49.5264 58.5898 49.5759 58.4985 49.692 58.3568C49.7509 58.2887 49.8221 58.1997 49.915 58.1146C50.0048 58.024 50.1124 57.9295 50.237 57.832C50.3608 57.7352 50.5009 57.6377 50.655 57.5433C50.8106 57.4527 50.977 57.3552 51.1597 57.2785C51.337 57.1911 51.5305 57.1237 51.7287 57.0579C51.9268 56.9898 52.1358 56.9519 52.341 56.8985C52.5492 56.8659 52.7598 56.8342 52.9657 56.8141C53.1731 56.8025 53.3783 56.797 53.5733 56.7978C53.7715 56.8087 53.9611 56.8257 54.1392 56.8427C54.3195 56.8636 54.4852 56.9046 54.6385 56.9348C54.7902 56.9697 54.9288 56.9991 55.0495 57.0455C55.1695 57.0866 55.274 57.1268 55.3584 57.1593C55.5264 57.2243 55.6208 57.2708 55.6208 57.2708C55.6208 57.2708 55.514 57.2855 55.3344 57.2979C55.2446 57.3049 55.1362 57.3141 55.0131 57.3172C54.8924 57.318 54.753 57.3343 54.6029 57.3467C54.4542 57.3598 54.294 57.3598 54.126 57.3784C53.9573 57.397 53.7823 57.414 53.6004 57.4272C53.4201 57.4512 53.2358 57.479 53.0454 57.4999C52.8596 57.5317 52.6715 57.5634 52.4819 57.5967C52.3874 57.6168 52.2945 57.6385 52.2016 57.6578C52.1072 57.678 52.0143 57.6934 51.9245 57.7205C51.8332 57.7453 51.7418 57.7678 51.652 57.7894C51.5607 57.8096 51.4779 57.8428 51.3896 57.8661C51.2147 57.9133 51.0506 57.9713 50.8911 58.0232C50.8106 58.0472 50.737 58.0813 50.6627 58.106C50.5884 58.1331 50.5149 58.1564 50.4475 58.1865C50.3105 58.24 50.1836 58.2903 50.0737 58.339C49.9591 58.3847 49.8639 58.4319 49.7803 58.4675C49.7036 58.507 49.6355 58.5333 49.5945 58.5566C49.5496 58.5782 49.5264 58.5898 49.5264 58.5898Z" fill="black"/>
<path d="M68.6131 61.7769C68.6131 61.7769 68.5519 61.6925 68.4196 61.5671C68.3507 61.5075 68.2709 61.4277 68.1688 61.3534C68.0674 61.2768 67.9466 61.1971 67.8135 61.1158C67.678 61.0353 67.5263 60.9571 67.3606 60.8836C67.1934 60.8131 67.0169 60.738 66.8257 60.6862C66.6384 60.6219 66.4379 60.5793 66.2335 60.5391C66.0292 60.4965 65.8171 60.4857 65.6065 60.4609C65.3944 60.4539 65.1839 60.4493 64.9756 60.4563C64.7682 60.471 64.5646 60.4919 64.3687 60.5174C64.1752 60.5538 63.9894 60.5948 63.8137 60.6343C63.6403 60.6776 63.4809 60.7403 63.333 60.7907C63.1859 60.8441 63.0512 60.8913 62.939 60.9517C62.8244 61.0082 62.7269 61.0616 62.6479 61.1049C62.4869 61.1916 62.401 61.2482 62.401 61.2482C62.401 61.2482 62.5086 61.2505 62.6882 61.2404C62.7772 61.235 62.8864 61.2296 63.0094 61.218C63.1302 61.2033 63.2688 61.2009 63.4197 61.1932C63.5683 61.1878 63.727 61.1676 63.8981 61.1638C64.0668 61.1607 64.2426 61.156 64.4237 61.146C64.6064 61.1475 64.7945 61.1506 64.9841 61.146C65.173 61.1529 65.3635 61.1622 65.5562 61.17C65.6514 61.1785 65.7466 61.1862 65.8418 61.194C65.9363 61.2025 66.0315 61.2056 66.1252 61.2218C66.218 61.2358 66.3109 61.2451 66.4031 61.2551C66.4959 61.2636 66.585 61.2853 66.6732 61.2977C66.8536 61.3217 67.0231 61.3588 67.1888 61.3898C67.2716 61.4022 67.3474 61.427 67.4249 61.4417C67.5023 61.4595 67.5789 61.4734 67.6486 61.4935C67.791 61.5307 67.9241 61.5632 68.0403 61.5973C68.1595 61.629 68.2593 61.6631 68.3445 61.6878C68.4273 61.7173 68.4978 61.7343 68.5426 61.7521C68.5883 61.7676 68.6131 61.7769 68.6131 61.7769Z" fill="black"/>
<path d="M73.8025 67.668C73.8025 67.668 74.1547 67.0185 74.8251 65.78C77.3331 61.1408 78.3921 55.6974 77.039 50.6008C76.3113 47.8605 74.8127 46.5275 73.5927 45.8811C72.3425 45.2201 66.6576 41.6298 63.2454 40.5933C57.086 38.7223 50.5263 40.67 45.9174 43.8701C41.3084 47.0701 35.296 57.5545 40.2812 57.6621C45.2663 57.7704 52.8439 50.7572 50.5921 52.5647C47.3688 55.1532 50.524 55.4272 57.7377 55.6742C64.9507 55.9203 69.2276 53.4107 69.2276 53.4107C69.2276 53.4107 68.9559 55.6185 70.0187 58.889C71.0808 62.1603 74.0285 65.886 74.0285 65.886" fill="#361710"/>
<path d="M51.2187 82.8839L52.9728 127.465C52.9728 127.465 52.921 135.561 46.7878 137.501C40.6547 139.441 37.8331 138.859 37.8331 138.859C37.8331 138.859 44.4996 110.123 43.1628 103.688C41.8259 97.2526 39.7776 86.9711 39.7776 86.9711L51.2187 82.8839Z" fill="#122738"/>
<path d="M66.5737 82.7647L63.9897 127.465C63.9897 127.465 64.0416 135.561 70.1747 137.501C76.3079 139.441 79.1294 138.859 79.1294 138.859C79.1294 138.859 72.4622 110.123 73.799 103.688C75.1367 97.2526 77.1849 86.9719 77.1849 86.9719L66.5737 82.7647Z" fill="#122738"/>
<path d="M84.0697 95.5302C84.0697 95.5302 96.4444 110.182 96.4668 114.792C96.4885 119.402 89.9969 117.947 89.9969 117.947L78.2687 101.207L84.0697 95.5302Z" fill="#EDAC7C"/>
<path d="M84.0697 95.53L78.2687 101.206L82.931 107.861C82.931 107.861 85.6961 103.738 90.706 104.048C87.468 99.5545 84.0697 95.53 84.0697 95.53Z" fill="#CF9166"/>
<path d="M39.065 96.9224C39.065 96.9224 22.5327 106.643 17.9857 105.886C13.4379 105.129 15.9692 98.9761 15.9692 98.9761L34.4514 90.2459L39.065 96.9224Z" fill="#EDAC7C"/>
<path d="M25.3644 103.942C31.6338 101.29 39.065 96.9229 39.065 96.9229L34.4515 90.2464L25.3597 94.5403C25.3597 94.5403 28.7309 101.871 25.3644 103.942" fill="#CF9166"/>
<path d="M93.6708 118.034C93.7041 118.015 93.7374 117.995 93.7706 117.975C95.0719 117.188 96.0302 115.916 96.6851 114.541C98.0792 111.617 98.8162 108.228 99.8767 105.16C100.702 102.769 101.451 100.192 102.462 97.7866C102.307 97.7162 102.162 97.6256 102.033 97.5041C100.747 96.3004 100.114 95.4837 98.6343 94.5269C98.2101 98.2201 93.0267 105.471 90.8632 111.233C90.4359 112.372 90.0635 113.551 90.0217 114.766C89.9443 117.052 91.1867 119.47 93.6708 118.034Z" fill="#EEC9B1"/>
<path d="M90.9231 118.984C91.5679 119.371 92.6408 119.655 94.1162 118.805L94.2308 118.736C95.5552 117.935 96.6808 116.616 97.4882 114.924C98.4318 112.945 99.0805 110.771 99.7082 108.669C100.027 107.597 100.358 106.49 100.717 105.451C100.969 104.722 101.214 103.975 101.461 103.221C102.017 101.526 102.592 99.7743 103.282 98.1309L103.617 97.3321L102.828 96.9752C102.751 96.9404 102.69 96.9017 102.641 96.8552C102.3 96.5363 102.006 96.2445 101.729 95.9712C100.948 95.1971 100.275 94.5283 99.1168 93.7797L97.9139 93.0018L97.7498 94.4253C97.5323 96.3257 95.8254 99.4639 94.0187 102.787C92.5347 105.514 91.002 108.333 90.0305 110.921C89.6125 112.033 89.179 113.356 89.1326 114.736C89.0683 116.626 89.7712 118.292 90.9231 118.984Z" fill="#EDAC7C"/>
<path d="M101.553 95.3227C101.554 95.3173 102.537 92.351 102.915 92.2356C103.295 92.1203 103.969 92.3897 103.969 92.3897L102.832 96.6433C102.832 96.6433 104.416 93.0825 105.035 92.7767C105.652 92.4702 106.342 92.7937 106.342 92.7937L104.453 97.6914C104.453 97.6914 105.57 94.1538 106.231 93.5973C106.892 93.0422 107.674 93.2783 107.674 93.2783L106.08 98.56L105.937 97.8919C105.937 97.8919 107.026 96.0209 107.694 95.8785C108.36 95.7345 109.002 95.8955 109.002 95.8955C109.002 95.8955 107.803 97.799 107.286 99.0221C106.769 100.245 105.83 100.471 105.83 100.471C103.727 99.8271 101.934 98.2565 100.204 96.9142C98.8675 95.8754 97.9138 93.0012 97.9138 93.0012C97.9138 93.0012 99.7275 91.323 101.553 95.3227Z" fill="#EDAC7C"/>
<path d="M16.418 104.048C16.3933 104.018 16.3685 103.989 16.3445 103.959C15.39 102.774 14.9233 101.253 14.7762 99.7361C14.4642 96.512 14.9271 93.075 14.9774 89.8285C15.0169 87.3003 15.1926 84.6211 15.0634 82.0155C15.2321 82.0024 15.4009 81.9668 15.5634 81.8971C17.1828 81.2035 18.056 80.6524 19.7737 80.2584C18.9122 83.8741 21.3095 92.458 21.3776 98.6129C21.3908 99.8297 21.3382 101.064 20.9627 102.222C20.256 104.397 18.2627 106.247 16.418 104.048Z" fill="#EEC9B1"/>
<path d="M18.6765 105.878C17.938 106.022 16.8334 105.924 15.7365 104.62L15.6514 104.516C14.6799 103.312 14.0715 101.688 13.8903 99.8212C13.679 97.6391 13.8114 95.3748 13.9391 93.1849C14.0041 92.0687 14.0715 90.9145 14.0885 89.8145C14.1001 89.0435 14.1249 88.2578 14.1496 87.4659C14.2054 85.6824 14.2627 83.8393 14.1752 82.0589L14.1318 81.1935L14.9957 81.1277C15.0801 81.1223 15.1505 81.106 15.2132 81.0789C15.6429 80.8962 16.0175 80.722 16.3713 80.5587C17.3691 80.0974 18.2306 79.6995 19.5745 79.3906L20.9709 79.0694L20.6396 80.4643C20.1953 82.3244 20.7294 85.8574 21.2937 89.597C21.7574 92.6663 22.2366 95.8401 22.2675 98.6044C22.2807 99.7918 22.2366 101.182 21.8093 102.496C21.2248 104.294 19.9956 105.621 18.6765 105.878Z" fill="#EDAC7C"/>
<path d="M16.7583 80.0105C16.7583 80.0043 16.8481 76.8808 16.5314 76.6432C16.2133 76.4055 15.488 76.428 15.488 76.428L15.1048 80.8147C15.1048 80.8147 14.8315 76.9273 14.3547 76.4287C13.8786 75.9302 13.1193 75.9983 13.1193 75.9983L13.2238 81.2467C13.2238 81.2467 13.3809 77.5403 12.9497 76.7926C12.5186 76.0448 11.7027 75.9991 11.7027 75.9991L11.3992 81.5083L11.7615 80.9293C11.7615 80.9293 11.3752 78.7998 10.797 78.4367C10.2187 78.0745 9.56152 78.0063 9.56152 78.0063C9.56152 78.0063 10.0384 80.2055 10.1073 81.5316C10.1762 82.8576 10.9804 83.3894 10.9804 83.3894C13.1781 83.5024 15.3997 82.6377 17.4836 81.965C19.0945 81.4456 20.9709 79.0692 20.9709 79.0692C20.9709 79.0692 19.8391 76.8731 16.7583 80.0105Z" fill="#EDAC7C"/>
<path d="M77.1846 86.9708C77.1846 86.9708 87.261 95.0252 89.6638 99.7402L79.0711 107.387L71.0538 95.5307L77.1846 86.9708Z" fill="#122738"/>
<path d="M39.7789 86.9704C39.7789 86.9704 31.1129 91.217 25.9358 93.9651L30.6051 105.395L45.4027 99.9387L39.7789 86.9704Z" fill="#122738"/>
<path d="M59.9753 244.299C58.5417 244.599 56.3309 243.762 54.6712 246.33C53.072 248.806 49.3122 248.767 49.0413 248.762C51.5532 249.084 54.5226 248.926 55.2758 247.83C56.4215 246.165 59.1834 245.829 59.1834 245.829C60.7804 245.829 62.0599 244.511 62.0112 242.916C62.0081 242.823 62.0058 242.721 62.0034 242.625C61.4871 243.333 60.7494 244.138 59.9753 244.299Z" fill="#1C0906"/>
<path d="M211.703 45.5166L212.895 45.9393C214.162 46.3875 214.824 47.7777 214.376 49.0441L213.943 50.2672C213.494 51.5328 212.104 52.1962 210.838 51.7473L209.646 51.3254C208.38 50.8764 207.717 49.4861 208.166 48.2197L208.598 46.9974C209.046 45.731 210.437 45.0684 211.703 45.5166ZM225.471 12.9614C228.569 14.0583 230.519 15.9997 231.322 18.7841C231.964 20.9848 231.868 23.2669 231.03 25.6309C229.63 29.5842 226.507 32.71 221.663 35.0075C219.974 35.8087 218.796 37.0194 218.13 38.6419C217.894 39.1776 217.657 39.7814 217.418 40.454C216.97 41.7205 215.58 42.3831 214.314 41.9349L213.122 41.5122C211.856 41.064 211.192 39.6738 211.641 38.4073C212.918 34.8001 214.755 32.4352 217.149 31.3097C219.735 30.0928 221.739 28.6128 223.16 26.8679C223.979 25.8508 224.617 24.6997 225.071 23.4163C225.54 22.0918 225.613 20.9477 225.289 19.9847C224.946 18.877 224.126 18.1842 222.825 17.9071C221.613 17.6384 220.492 18.1478 219.463 19.4343C219.412 19.4963 219.36 19.5597 219.31 19.6255C218.574 20.58 217.245 20.8455 216.195 20.2518L215.166 19.6704C213.892 18.9505 213.535 17.2731 214.409 16.0996C215.276 14.9338 216.323 13.9956 217.547 13.285C218.874 12.5163 220.46 12.1834 222.304 12.2864C223.274 12.3328 224.33 12.5573 225.471 12.9614Z" fill="#FCC822"/>
<path d="M128.433 49.1144L130.176 49.455C132.027 49.8173 133.234 51.6124 132.872 53.4625L132.522 55.2506C132.16 57.1015 130.365 58.3083 128.515 57.946L126.771 57.6054C124.92 57.2431 123.714 55.4488 124.076 53.5979L124.426 51.8098C124.788 49.9589 126.582 48.7514 128.433 49.1144ZM140.854 1.05954C145.382 1.94587 148.491 4.24028 150.179 7.94199C151.524 10.8665 151.86 14.0565 151.183 17.5121C150.052 23.293 146.358 28.2766 140.104 32.466C137.922 33.9267 136.536 35.8511 135.944 38.2407C135.727 39.0342 135.522 39.9221 135.33 40.9052C134.967 42.756 133.173 43.9636 131.321 43.6005L129.579 43.2599C127.727 42.8977 126.521 41.1033 126.883 39.2525C127.915 33.9786 129.978 30.3148 133.072 28.2596C136.413 26.0372 138.892 23.5678 140.507 20.8515C141.435 19.2701 142.083 17.5407 142.45 15.6636C142.829 13.7276 142.694 12.1236 142.046 10.8518C141.343 9.3849 140.06 8.59145 138.196 8.47456C136.457 8.35071 135.005 9.28813 133.84 11.2876C133.782 11.3844 133.724 11.4835 133.668 11.5849C132.842 13.0626 131.05 13.7043 129.47 13.0967L127.921 12.5006C126.003 11.7629 125.16 9.50643 126.133 7.6966C127.099 5.89838 128.359 4.37961 129.913 3.14106C131.598 1.80034 133.732 1.01154 136.316 0.774666C137.672 0.638428 139.185 0.732868 140.854 1.05954Z" fill="#FCC822"/>
<path d="M100.331 80.0648L101.556 79.7505C102.856 79.4161 104.182 80.2002 104.516 81.5007L104.839 82.7578C105.173 84.0583 104.389 85.3843 103.088 85.7179L101.863 86.033C100.562 86.3666 99.236 85.5833 98.9024 84.2812L98.5796 83.0249C98.2452 81.7244 99.0293 80.3992 100.331 80.0648ZM93.5968 45.3645C96.7798 44.5471 99.4806 45.0704 101.701 46.9328C103.461 48.4013 104.653 50.3489 105.277 52.7788C106.321 56.8412 105.473 61.1777 102.734 65.7866C101.779 67.3936 101.477 69.0556 101.829 70.7733C101.932 71.3492 102.072 71.9832 102.25 72.6745C102.584 73.9757 101.8 75.301 100.499 75.6346L99.274 75.9497C97.9727 76.2833 96.6475 75.4999 96.3131 74.1987C95.3617 70.4923 95.5653 67.5043 96.9246 65.2362C98.393 62.7831 99.2298 60.4369 99.4357 58.1959C99.548 56.8946 99.435 55.5841 99.0967 54.265C98.7468 52.9042 98.1693 51.9141 97.3627 51.2948C96.4609 50.5672 95.3934 50.4503 94.1588 50.9457C93.003 51.3993 92.3567 52.4467 92.2204 54.0885C92.2127 54.169 92.2057 54.2496 92.2003 54.3324C92.1221 55.5361 91.1669 56.4975 89.9647 56.5904L88.7866 56.6817C87.3274 56.794 86.095 55.6019 86.1655 54.1404C86.2359 52.689 86.5804 51.3266 87.2004 50.054C87.8731 48.6761 89.0033 47.5149 90.5917 46.5713C91.4223 46.0682 92.4232 45.6656 93.5968 45.3645Z" fill="#FCC822"/>
<path d="M287.899 80.23L289.125 79.9157C290.425 79.5813 291.751 80.3655 292.085 81.666L292.408 82.9231C292.742 84.2243 291.958 85.5496 290.658 85.884L289.431 86.1983C288.131 86.5327 286.805 85.7485 286.471 84.4473L286.148 83.1909C285.814 81.8904 286.598 80.5644 287.899 80.23ZM281.166 45.5306C284.349 44.7131 287.049 45.2364 289.27 47.0989C291.03 48.5673 292.222 50.5149 292.846 52.944C293.889 57.0073 293.042 61.3437 290.303 65.9527C289.348 67.5597 289.046 69.2209 289.398 70.9394C289.501 71.5153 289.641 72.1493 289.818 72.8398C290.153 74.141 289.369 75.467 288.068 75.8007L286.843 76.1157C285.542 76.4494 284.216 75.666 283.882 74.3647C282.931 70.6584 283.134 67.6704 284.493 65.4015C285.962 62.9492 286.799 60.6029 287.005 58.3611C287.117 57.0599 287.004 55.7501 286.666 54.4311C286.316 53.0695 285.738 52.0802 284.932 51.4609C284.03 50.7332 282.962 50.6163 281.728 51.1118C280.573 51.5646 279.926 52.612 279.789 54.2546C279.782 54.3343 279.775 54.4156 279.77 54.4984C279.691 55.7014 278.736 56.6636 277.534 56.7564L276.355 56.8478C274.897 56.96 273.664 55.7672 273.734 54.3064C273.805 52.8543 274.149 51.4918 274.769 50.2192C275.442 48.8414 276.572 47.681 278.161 46.7374C278.991 46.2342 279.993 45.8317 281.166 45.5306Z" fill="#FCC822"/>
<path d="M149.16 126.204L154.323 104.397L144.933 104.043L140 124.172C139.652 125.593 139.733 127.085 140.232 128.459L149.206 153.153L159.954 152.116L149.16 126.204Z" fill="#A7A6BB"/>
<path d="M144.914 123.292C145.872 121.367 146.801 119.646 147.702 118.129C148.949 115.904 150.526 114.016 152.417 112.449L154.324 104.397L144.933 104.043L140 124.172C139.757 125.165 139.736 126.19 139.908 127.188C142.005 126.729 143.884 125.365 144.914 123.292Z" fill="#727293"/>
<path d="M158.309 198.141L158.081 199.201L156.88 204.77L151.567 229.422L150.988 232.1L150.858 232.704L149.789 244.412L148.531 244.793C145.335 245.764 142.071 245.554 139.222 244.385C138.056 243.907 136.867 242.742 136.038 241.816C135.099 240.767 134.339 239.563 133.751 238.285C132.061 234.61 131.67 230.424 131.582 226.429C131.552 225.078 131.559 223.727 131.559 222.375V209.129V197.547V193.339C132.536 193.339 133.631 193.217 134.414 193.164C135.12 193.118 136.387 192.882 137.113 192.882C139.96 191.905 142.896 192.172 145.644 191.838C146.949 191.679 148.213 191.603 149.402 191.554C151.059 191.488 152.574 191.587 153.866 191.907C156.578 192.582 158.309 194.363 158.309 198.141Z" fill="#1C1B2D"/>
<path d="M179.625 234.895L151.356 243.938L149.789 244.413L148.531 244.793C145.335 245.764 142.071 245.555 139.222 244.386C138.48 243.968 137.779 243.482 137.129 242.936C137.125 242.933 137.122 242.928 137.118 242.923C134.928 240.902 133.397 238.17 132.869 235.09L149.228 230.13L151.566 229.423L175.87 222.511L179.625 234.895Z" fill="#1C1B2D"/>
<path d="M194.597 236.935C194.233 235.358 193.598 233.406 193.457 232.79C192.918 230.426 192.119 228.119 191.44 225.793C191.191 224.942 190.888 224.354 190.784 224.168C190.731 224.082 190.739 224.087 190.784 224.168C190.859 224.292 191.058 224.598 191.445 225.129C190.736 224.158 190.166 223.244 189.696 222.142C189.166 220.899 188.759 219.654 188.453 218.415L170.977 223.634L174.934 236.887L183.133 234.439C183.639 234.288 184.172 234.575 184.323 235.08L185.167 237.908C185.428 238.784 185.805 239.592 186.26 240.338C186.735 240.172 187.22 240.034 187.717 239.927C189.883 239.46 191.949 238.693 194.023 237.951C194.2 237.605 194.388 237.266 194.597 236.935Z" fill="#361710"/>
<path d="M178.492 225.677C180.027 225.218 181.644 226.092 182.104 227.627C182.562 229.163 181.689 230.78 180.153 231.239C178.617 231.698 177 230.824 176.541 229.289C176.083 227.753 176.956 226.136 178.492 225.677Z" fill="white"/>
<path d="M185.242 238.139C186.976 243.491 192.673 246.506 198.091 244.888C198.596 244.736 198.884 244.204 198.733 243.699L196.104 234.896L185.242 238.139Z" fill="white"/>
<path d="M194.551 245.308C195.715 245.371 196.91 245.24 198.091 244.887C198.597 244.737 198.884 244.204 198.734 243.698L191.233 218.583C191.082 218.077 190.55 217.789 190.044 217.941L186.679 218.945L194.551 245.308Z" fill="white"/>
<path d="M179.335 155.668L177.811 158.788L169.828 175.14L156.689 202.053L131.905 192.016L139.494 174.762L144.936 162.393L153.27 143.444L179.335 155.668Z" fill="#A7A6BB"/>
<path d="M174.886 161.028C174.609 161.028 174.086 160.649 173.46 160.119C172.096 167.287 165.078 172.904 157.79 172.904C151.585 172.904 146.509 169.368 143.863 164.317L138.391 177.27L144.188 186.097C145.417 187.92 147.822 188.532 149.774 187.515L168.724 177.649L176.708 161.299C176.122 161.12 175.506 161.028 174.886 161.028Z" fill="#727293"/>
<path d="M166.782 164.963C165.347 164.963 163.981 164.756 162.682 164.403L146.776 196.982L132.3 191.119L131.906 192.016L156.688 202.054L176.463 161.55C173.689 163.675 170.268 164.963 166.782 164.963Z" fill="#727293"/>
<path d="M184.129 133.897C184.129 133.897 187.975 131.657 189.452 134.737C190.929 137.816 184.94 143.075 181.089 139.727L184.129 133.897Z" fill="#EDAC7C"/>
<path d="M182.977 136.107L181.411 139.108C185.002 141.356 189.374 136.854 187.893 135.393C186.697 134.211 184.151 135.384 182.977 136.107Z" fill="#F7A588"/>
<path d="M188.069 136.759C188.069 136.759 188.071 136.732 188.077 136.681C188.084 136.632 188.087 136.56 188.094 136.471C188.099 136.293 188.089 136.029 187.964 135.792C187.933 135.732 187.891 135.678 187.845 135.628C187.82 135.603 187.797 135.578 187.769 135.554L187.749 135.537L187.748 135.536C187.762 135.55 187.752 135.54 187.754 135.542L187.752 135.54L187.743 135.534L187.731 135.524L187.676 135.484C187.637 135.453 187.605 135.434 187.575 135.417C187.545 135.397 187.511 135.379 187.471 135.36C187.436 135.342 187.398 135.324 187.359 135.31C187.32 135.293 187.282 135.276 187.239 135.266C186.913 135.161 186.527 135.15 186.138 135.194C185.941 135.211 185.746 135.25 185.552 135.29C185.359 135.333 185.167 135.38 184.983 135.431C184.614 135.536 184.27 135.652 183.973 135.752C183.376 135.965 182.977 136.107 182.977 136.107C182.977 136.107 183.052 136.031 183.196 135.91C183.342 135.792 183.554 135.629 183.826 135.458C183.963 135.375 184.113 135.283 184.278 135.2C184.443 135.115 184.622 135.033 184.812 134.957C185.192 134.807 185.617 134.679 186.068 134.63C186.294 134.608 186.524 134.601 186.754 134.626C186.983 134.651 187.212 134.708 187.42 134.8C187.473 134.822 187.522 134.848 187.573 134.875C187.623 134.9 187.669 134.932 187.714 134.963C187.76 134.992 187.804 135.026 187.848 135.064C187.893 135.101 187.936 135.137 187.962 135.169L188.01 135.221L188.039 135.252L188.066 135.283C188.101 135.324 188.129 135.366 188.156 135.41C188.207 135.499 188.246 135.59 188.27 135.679C188.323 135.857 188.317 136.023 188.297 136.16C188.279 136.296 188.239 136.408 188.205 136.496C188.17 136.583 188.132 136.649 188.108 136.693C188.083 136.736 188.069 136.759 188.069 136.759Z" fill="#CF9166"/>
<path d="M160.7 124.201C160.7 124.201 159.563 119.898 156.342 121.033C153.121 122.167 153.64 130.121 158.732 130.475L160.7 124.201Z" fill="#EDAC7C"/>
<path d="M159.954 126.578L158.94 129.807C154.812 128.861 154.901 122.587 156.982 122.599C158.662 122.608 159.634 125.238 159.954 126.578Z" fill="#F7A588"/>
<path d="M155.892 123.44C155.892 123.44 155.908 123.42 155.94 123.381C155.971 123.341 156.017 123.287 156.077 123.22C156.198 123.089 156.392 122.909 156.649 122.83C156.712 122.811 156.779 122.802 156.85 122.799C156.884 122.799 156.919 122.796 156.953 122.801L156.981 122.803H156.982C156.961 122.803 156.978 122.803 156.975 122.803L156.978 122.803L156.987 122.804L157.003 122.806L157.071 122.817C157.119 122.821 157.156 122.832 157.19 122.841C157.225 122.847 157.263 122.858 157.303 122.874C157.341 122.885 157.379 122.9 157.417 122.917C157.456 122.933 157.495 122.949 157.533 122.971C157.838 123.126 158.119 123.392 158.365 123.698C158.489 123.85 158.602 124.015 158.711 124.181C158.817 124.348 158.919 124.516 159.013 124.683C159.199 125.018 159.361 125.342 159.501 125.623C159.773 126.197 159.954 126.579 159.954 126.579C159.954 126.579 159.955 126.47 159.938 126.284C159.921 126.099 159.885 125.832 159.812 125.519C159.774 125.363 159.732 125.192 159.674 125.016C159.617 124.84 159.551 124.655 159.469 124.467C159.307 124.094 159.096 123.703 158.812 123.348C158.67 123.173 158.509 123.005 158.328 122.861C158.149 122.717 157.948 122.595 157.735 122.514C157.682 122.491 157.628 122.475 157.574 122.46C157.52 122.441 157.467 122.429 157.41 122.421C157.359 122.409 157.304 122.402 157.245 122.398C157.187 122.392 157.132 122.388 157.089 122.392L157.021 122.393L156.978 122.395L156.937 122.399C156.884 122.402 156.831 122.413 156.781 122.425C156.683 122.453 156.592 122.489 156.511 122.534C156.349 122.624 156.236 122.745 156.154 122.854C156.069 122.964 156.019 123.071 155.981 123.159C155.943 123.246 155.924 123.319 155.91 123.367C155.898 123.415 155.892 123.44 155.892 123.44Z" fill="#CF9166"/>
<path d="M171.042 140.283L164.7 137.657C164.7 137.657 160.345 147.488 160.322 147.478C160.322 147.478 159.967 149.652 162.763 150.86C165.56 152.069 167.11 150.288 167.11 150.288C167.109 150.223 171.042 140.283 171.042 140.283Z" fill="#EDAC7C"/>
<path d="M169.004 145.562L162.232 143.209C162.232 143.209 160.72 146.67 160.696 146.66C160.696 146.66 160.435 148.397 163.231 149.607C166.027 150.815 167.486 149.319 167.486 149.319C167.485 149.255 169.004 145.562 169.004 145.562Z" fill="#CF9166"/>
<path d="M170.286 142.109L163.944 139.483C163.944 139.483 163.338 140.718 162.818 141.768C162.742 141.919 164.451 142.949 164.636 143.062C166.086 143.952 167.698 144.384 169.368 144.626C169.775 143.5 170.286 142.109 170.286 142.109Z" fill="#CF9166"/>
<path d="M186.895 123.948C181.331 123.948 176.668 121.107 173.857 116.876H158.527C158.244 117.799 157.987 118.804 157.763 119.918C156.078 128.311 158.278 139.232 166.743 142.736C175.208 146.24 185.146 140.515 188.419 132.607C189.613 129.723 189.801 126.663 189.16 123.768C188.412 123.885 187.655 123.948 186.895 123.948Z" fill="#3E150D"/>
<path d="M186.87 131.738C188.541 127.268 188.367 122.323 184.721 118.811C182.867 117.024 180.532 115.786 178.147 114.844C175.791 113.913 173.235 113.033 170.684 112.97C166.114 112.859 165.842 115.136 163.776 118.994C163.572 119.372 160.129 120.206 159.952 120.596C159.544 121.49 159.104 122.356 158.761 123.281C157.989 125.361 157.465 127.55 157.328 129.772C157.161 132.466 157.608 135.216 158.914 137.629C159.656 139.001 160.655 140.229 161.819 141.275C163.744 143 165.779 144.15 168.314 144.691C170.031 145.058 171.804 145.181 173.54 144.952C176.419 144.575 179.023 143.215 181.106 141.258C182.858 139.61 184.247 137.603 185.334 135.473C185.929 134.306 186.459 133.09 186.84 131.838C186.85 131.804 186.858 131.77 186.87 131.738Z" fill="#EDAC7C"/>
<path d="M175.553 130.732C174.986 131.963 175.444 133.384 176.576 133.903C177.708 134.423 179.085 133.845 179.653 132.613C180.221 131.381 179.763 129.962 178.631 129.442C177.498 128.922 176.12 129.499 175.553 130.732Z" fill="#CF9166"/>
<path d="M175.727 129.843C175.159 131.074 175.617 132.494 176.749 133.015C177.882 133.535 179.259 132.957 179.827 131.725C180.395 130.494 179.937 129.073 178.805 128.553C177.672 128.034 176.294 128.611 175.727 129.843Z" fill="black"/>
<path d="M176.709 129.562C176.503 130.008 176.705 130.539 177.159 130.746C177.613 130.955 178.148 130.764 178.354 130.317C178.559 129.871 178.357 129.341 177.903 129.132C177.449 128.923 176.914 129.115 176.709 129.562Z" fill="white"/>
<path d="M162.786 126.013C162.219 127.245 162.676 128.665 163.809 129.184C164.941 129.705 166.319 129.126 166.886 127.896C167.453 126.664 166.996 125.244 165.864 124.723C164.732 124.205 163.354 124.781 162.786 126.013Z" fill="#CF9166"/>
<path d="M163.026 125.491C162.458 126.723 162.917 128.143 164.049 128.663C165.181 129.183 166.559 128.605 167.126 127.373C167.694 126.142 167.236 124.721 166.104 124.202C164.972 123.682 163.593 124.26 163.026 125.491Z" fill="black"/>
<path d="M164.008 125.211C163.803 125.656 164.003 126.187 164.458 126.396C164.912 126.605 165.447 126.413 165.653 125.966C165.858 125.519 165.657 124.989 165.202 124.78C164.748 124.573 164.214 124.765 164.008 125.211Z" fill="white"/>
<path d="M170.87 126.322C170.87 126.322 170.129 131.15 168.773 130.714C166.144 129.873 165.346 135.643 169.707 134.052C171.353 133.452 172.196 126.544 172.196 126.544L170.87 126.322Z" fill="#F48470"/>
<path d="M162.444 123.411C162.444 123.411 162.526 123.343 162.69 123.253C162.773 123.21 162.875 123.153 162.996 123.107C163.116 123.054 163.255 123.007 163.411 122.961C163.566 122.916 163.737 122.877 163.919 122.846C164.102 122.818 164.298 122.79 164.502 122.786C164.704 122.771 164.913 122.781 165.128 122.794C165.343 122.804 165.557 122.848 165.773 122.877C165.983 122.925 166.196 122.975 166.4 123.035C166.602 123.103 166.799 123.176 166.986 123.251C167.17 123.337 167.344 123.426 167.507 123.511C167.672 123.599 167.813 123.702 167.947 123.789C168.078 123.88 168.2 123.962 168.297 124.052C168.395 124.137 168.479 124.215 168.548 124.278C168.683 124.404 168.755 124.485 168.755 124.485C168.755 124.485 168.648 124.459 168.472 124.401C168.384 124.373 168.277 124.34 168.158 124.298C168.042 124.252 167.905 124.214 167.757 124.167C167.61 124.124 167.458 124.062 167.29 124.016C167.122 123.969 166.949 123.918 166.77 123.862C166.589 123.815 166.403 123.772 166.215 123.718C166.025 123.677 165.833 123.636 165.64 123.595C165.542 123.578 165.445 123.562 165.349 123.546C165.252 123.53 165.157 123.508 165.061 123.499C164.965 123.489 164.869 123.475 164.776 123.462C164.681 123.446 164.589 123.445 164.495 123.434C164.311 123.412 164.132 123.405 163.961 123.393C163.875 123.385 163.793 123.39 163.712 123.385C163.63 123.383 163.552 123.377 163.476 123.379C163.325 123.378 163.184 123.377 163.061 123.381C162.934 123.382 162.826 123.39 162.733 123.392C162.645 123.4 162.569 123.399 162.522 123.406C162.47 123.41 162.444 123.411 162.444 123.411Z" fill="black"/>
<path d="M182.01 127.361C182.01 127.361 181.962 127.265 181.85 127.114C181.791 127.042 181.724 126.947 181.634 126.855C181.545 126.759 181.437 126.657 181.316 126.55C181.195 126.446 181.054 126.341 180.9 126.237C180.742 126.136 180.578 126.029 180.394 125.943C180.215 125.845 180.019 125.767 179.82 125.691C179.621 125.611 179.408 125.563 179.2 125.501C178.987 125.457 178.774 125.415 178.562 125.385C178.35 125.364 178.139 125.349 177.938 125.34C177.736 125.344 177.541 125.351 177.356 125.362C177.172 125.375 177.001 125.409 176.842 125.434C176.684 125.463 176.54 125.488 176.415 125.529C176.29 125.566 176.182 125.603 176.094 125.632C175.916 125.692 175.818 125.734 175.818 125.734C175.818 125.734 175.927 125.755 176.11 125.775C176.202 125.787 176.313 125.8 176.439 125.81C176.565 125.817 176.705 125.838 176.859 125.858C177.011 125.878 177.175 125.885 177.347 125.912C177.519 125.938 177.697 125.964 177.883 125.986C178.067 126.019 178.257 126.056 178.45 126.084C178.639 126.125 178.83 126.167 179.024 126.21C179.119 126.235 179.214 126.259 179.309 126.284C179.403 126.31 179.499 126.328 179.591 126.361C179.682 126.392 179.774 126.419 179.865 126.444C179.958 126.469 180.044 126.506 180.132 126.535C180.309 126.591 180.475 126.658 180.636 126.719C180.718 126.745 180.79 126.784 180.866 126.814C180.942 126.844 181.017 126.872 181.084 126.905C181.221 126.966 181.35 127.023 181.462 127.078C181.576 127.131 181.672 127.183 181.753 127.223C181.832 127.267 181.901 127.298 181.942 127.323C181.986 127.347 182.01 127.361 182.01 127.361Z" fill="black"/>
<path d="M187.04 131.973C187.04 131.973 187.963 130.361 188.86 128.151C187.917 130.387 187.04 131.973 187.04 131.973Z" fill="#CF9166"/>
<path d="M188.275 116.169C187.364 116.26 186.417 116.239 185.506 116.258C183.318 116.306 181.129 116.242 178.94 116.282C177.638 116.306 176.339 116.363 175.041 116.465C174.93 116.473 171.917 116.781 172.011 116.743C169.766 117.049 167.53 117.44 165.292 117.783C164.425 117.916 163.573 117.989 162.73 118.028C165.262 118.563 168.541 118.408 170.827 118.185C170.704 118.223 170.595 118.252 170.462 118.298C168.099 119.1 170.052 121.729 174.197 123.497C179.934 125.942 185.132 124.973 185.132 124.973C185.132 124.973 184.205 126.656 184.004 129.62C183.867 131.65 184.369 134.135 184.699 135.501C184.852 136.13 184.968 136.522 184.968 136.522L184.213 137.878C184.213 137.878 185.881 135.059 188.856 131.39C195.055 123.744 194.402 119.307 193.205 117.15C191.525 117.062 189.855 116.745 188.275 116.169Z" fill="#361710"/>
<path d="M187.872 125.896C187.872 125.896 175.537 126.428 154.946 118.24C145.093 114.322 161.211 114.043 161.211 114.043L180.276 113.607L187.872 125.896Z" fill="#2D2C44"/>
<path d="M190.392 129.492C190.392 129.492 189.671 127.971 187.873 125.897C185.803 123.508 182.309 120.384 176.854 118.007C166.666 113.567 161.21 114.044 161.21 114.044C161.21 114.044 162.04 108.061 169.927 105.083C172.991 103.925 176.147 103.615 179.163 104.107C184.227 104.931 188.901 108.009 192.104 113.124C197.189 121.246 190.392 129.492 190.392 129.492Z" fill="#2D2C44"/>
<path d="M187.872 125.896C185.804 123.507 182.309 120.384 176.855 118.007C166.666 113.566 161.211 114.044 161.211 114.044C161.211 114.044 162.04 108.061 169.927 105.082C172.991 103.925 176.147 103.615 179.164 104.107C181.773 105.239 184.24 107.003 186.406 109.391C192.205 115.785 188.831 123.922 187.872 125.896Z" fill="#A7A6BB"/>
<path d="M186.068 134.63C186.068 134.63 177.618 137.961 174.16 140.506C173.251 141.176 172.764 143.444 169.798 143.444C166.124 143.444 166.703 141.69 164.295 140.028C162.948 139.098 160.091 138.155 159.281 136.987C157.499 134.42 157.513 126.164 157.513 126.164C157.513 126.164 155.063 132.566 156.929 138.641C157.731 141.251 158.749 148.039 167.811 148.374C176.383 148.691 177.719 146.053 179.391 144.33C181.064 142.608 186.068 134.63 186.068 134.63Z" fill="#361710"/>
<path d="M127.993 128.771L131.406 130.469C135.031 132.271 136.508 136.672 134.706 140.297L132.965 143.797C131.162 147.422 126.762 148.9 123.137 147.097L119.724 145.399C116.099 143.597 114.622 139.197 116.424 135.572L118.165 132.071C119.968 128.446 124.368 126.969 127.993 128.771Z" fill="#FCC822"/>
<path d="M136.39 151.33L135.205 148.723C134.909 147.849 134.8 146.924 134.882 146.005L135.41 140.139C135.479 139.374 135.242 138.611 134.749 138.02L130.025 132.344C129.724 131.981 129.155 132.025 128.913 132.429C128.769 132.67 128.786 132.973 128.956 133.196L131.146 136.067L129.115 134.454C128.722 134.142 128.138 134.307 127.967 134.779C127.864 135.06 127.943 135.376 128.166 135.575L131.336 138.438L128.343 136.494C127.93 136.226 127.374 136.412 127.206 136.875C127.08 137.223 127.221 137.61 127.541 137.798L130.29 139.4L127.359 138.421C127.005 138.303 126.621 138.488 126.494 138.839C126.377 139.161 126.515 139.52 126.817 139.681L128.504 140.58C129.623 141.178 130.227 142.433 129.992 143.68L129.444 146.608C129.133 148.267 129.467 149.983 130.377 151.405L131.864 153.727L136.39 151.33Z" fill="#EDAC7C"/>
<path d="M173.514 155.785L153.234 166.644C151.888 167.366 150.214 166.93 149.389 165.646L137.533 147.369L128.708 152.177L145.784 180.106C147.015 181.929 149.418 182.54 151.37 181.525L179.399 166.931C182.176 165.485 183.47 162.22 182.439 159.265C181.164 155.61 176.926 153.958 173.514 155.785Z" fill="#A7A6BB"/>
<path d="M161.543 191.931C161.543 202.978 152.588 211.937 141.536 211.937L122.192 210.21L108.372 208.975V205.75C108.372 198.117 114.559 191.931 122.192 191.931H161.543Z" fill="#2D2C44"/>
<path d="M121.794 191.932V245.613L109.671 243.105L108.124 205.751C108.124 198.118 113.982 191.932 121.794 191.932Z" fill="#2D2C44"/>
<path d="M101.089 235.982C95.4656 236.112 90.9464 240.708 90.9464 246.363C90.9464 246.891 91.3745 247.319 91.9024 247.319H101.089V235.982Z" fill="white"/>
<path d="M108.459 226.463V235.02C108.459 235.547 108.031 235.976 107.504 235.976H101.333C101.015 235.976 100.702 235.99 100.391 236.018V244.348H122.29V226.463H108.459Z" fill="#361710"/>
<path d="M118.183 233.08C118.183 234.683 116.883 235.982 115.281 235.982C113.678 235.982 112.378 234.683 112.378 233.08C112.378 231.477 113.678 230.178 115.281 230.178C116.883 230.178 118.183 231.477 118.183 233.08Z" fill="white"/>
<path d="M91.5568 242.85C91.1628 243.947 90.946 245.129 90.946 246.362C90.946 246.89 91.3741 247.317 91.902 247.317H121.335C121.863 247.317 122.291 246.89 122.291 246.362V242.85H91.5568Z" fill="white"/>
<path d="M181.033 36.3825C189.9 40.7918 195.029 47.3096 196.418 55.9322C197.539 62.7497 196.418 69.5408 193.052 76.3087C187.423 87.6274 176.944 95.8429 161.615 100.955C156.27 102.736 152.307 105.932 149.723 110.541C148.822 112.059 147.893 113.779 146.936 115.705C145.133 119.33 140.733 120.807 137.108 119.004L133.694 117.307C130.07 115.505 128.592 111.104 130.394 107.48C135.53 97.1519 141.883 90.7432 149.455 88.249C157.637 85.5498 164.17 81.8496 169.057 77.147C171.877 74.4013 174.202 71.1919 176.03 67.5158C177.915 63.7235 178.549 60.3275 177.931 57.3272C177.309 53.8902 175.106 51.5199 171.315 50.2163C167.786 48.9716 164.247 50.0855 160.7 53.5612C160.524 53.7284 160.348 53.9002 160.174 54.0775C157.624 56.6669 153.551 56.9765 150.626 54.8191L147.76 52.7051C144.211 50.0871 143.75 44.9378 146.792 41.7455C149.814 38.5724 153.285 36.1472 157.206 34.4674C161.455 32.6514 166.322 32.2326 171.803 33.2119C174.687 33.7011 177.765 34.757 181.033 36.3825Z" fill="#FCC822"/>
<path d="M166.829 140.846C167.069 140.846 167.275 140.683 167.335 140.452C167.573 139.529 168.406 138.845 169.403 138.845C170.402 138.845 171.233 139.529 171.472 140.452C171.531 140.683 171.738 140.846 171.977 140.846C172.312 140.846 172.577 140.532 172.495 140.206C172.146 138.82 170.899 137.792 169.403 137.792C167.908 137.792 166.661 138.82 166.312 140.206C166.23 140.532 166.494 140.846 166.829 140.846Z" fill="#F05B4E"/>
<path d="M176.117 139.921C175.629 137.605 173.99 135.692 171.792 134.855C171.379 134.698 170.909 134.772 170.582 135.068C170.218 135.395 169.822 135.746 169.403 135.746C168.963 135.746 168.548 135.377 168.169 135.034C167.846 134.743 167.388 134.661 166.978 134.809C164.998 135.52 163.421 137.109 162.738 139.135C162.527 139.762 162.834 140.488 163.468 140.678C164.089 140.864 164.702 140.516 164.889 139.934C165.523 137.956 167.418 136.574 169.589 136.7C171.76 136.825 173.483 138.416 173.886 140.453C173.987 140.965 174.416 141.343 174.936 141.374H174.936C175.7 141.374 176.274 140.668 176.117 139.921Z" fill="#361710"/>
<path d="M131.905 192.017C131.905 192.017 146.406 192.404 152.72 197.761C159.033 203.118 160.469 203.214 160.469 203.214C160.469 203.214 161.385 192.433 164.802 185.434C168.219 178.435 163.912 180.35 163.052 181.402C162.191 182.454 151.381 191.535 151.381 191.535L149.242 191.931L131.905 192.017Z" fill="#727293"/>
<path d="M217.889 85.9758C217.889 85.9758 216.934 89.6396 218.506 90.4756C220.08 91.3124 224.101 91.7506 224.141 90.4756C224.181 89.2015 225.296 87.9668 223.305 87.0905C221.314 86.215 218.964 85.9758 218.964 85.9758H217.889Z" fill="#C9BDBD"/>
<path d="M256.384 43.0208C256.343 43.0285 256.302 43.0371 256.261 43.0464C255.936 43.116 255.746 43.1818 255.746 43.1818V43.1965C255.669 43.2244 255.591 43.2492 255.516 43.2825C251.329 45.1542 251.329 48.9852 251.329 48.9852L253.913 56.6479C253.913 56.6479 254.635 56.6828 255.717 56.5837L255.642 91.287L256.017 91.5022C258.822 93.1115 262.269 93.1185 265.079 91.5185L265.487 91.287C265.487 91.287 265.989 77.3456 266.175 58.3974C266.333 42.2684 258.669 42.5734 256.384 43.0208Z" fill="#161616"/>
<path d="M250.285 48.492L251.834 46.4507C252.03 46.1922 252.393 46.131 252.66 46.3152C254.351 47.4772 259.863 51.6944 259.111 56.7725L250.285 48.492Z" fill="white"/>
<path d="M243.788 80.8486C243.791 80.8285 245.37 80.6512 245.465 80.6342C246.846 80.3803 248.201 79.9646 249.488 79.4026C253.465 77.664 256.522 74.4562 258.035 70.3798C259.12 67.4522 259.425 64.2846 259.307 61.1813C259.134 56.6296 258.083 51.6561 254.075 48.874C250.661 46.506 248.989 47.2252 248.989 47.2252C248.989 47.2252 243.789 80.837 243.788 80.8486Z" fill="#161616"/>
<path d="M244.717 75.0177L237.764 74.5764C237.764 74.5764 236.807 85.447 236.781 85.4455C236.781 85.4455 237.154 87.6485 240.236 87.8931C243.318 88.1354 244.223 85.9161 244.223 85.9161C244.2 85.8542 244.717 75.0177 244.717 75.0177Z" fill="#F8D0B7"/>
<path d="M240.485 83.4403C238.203 83.2599 237.375 82.461 237.099 82.0585C237.387 78.8685 237.764 74.5769 237.764 74.5769L244.717 75.0181C244.717 75.0181 244.519 79.1696 244.374 82.3488C244.185 82.5965 243.212 83.6547 240.485 83.4403Z" fill="#EFBDAC"/>
<path d="M241.743 78.4935L234.79 78.0523C234.79 78.0523 234.614 79.4379 234.459 80.6153C234.435 80.7864 236.414 81.2152 236.629 81.2632C238.314 81.6402 240.004 81.528 241.687 81.2114C241.709 79.9968 241.743 78.4935 241.743 78.4935Z" fill="#CF9166"/>
<path d="M226.392 58.5876C226.587 57.1903 226.735 56.006 227.859 54.6854C230.607 51.4582 234.993 49.6158 239.203 49.6228C245.537 49.6337 252.104 52.0612 253.797 58.6867C254.377 60.9555 254.391 63.3351 254.167 65.6667C253.814 69.3436 252.829 73.06 250.61 76.0139C247.951 79.5531 243.558 81.7221 239.132 81.6811C232.373 81.6184 226.963 77.9863 225.145 72.0901C223.836 67.8457 225.058 64.521 226.069 60.3935C226.228 59.7425 226.314 59.148 226.392 58.5876Z" fill="#F8D0B7"/>
<path d="M256.523 66.4347C256.538 66.4548 256.558 66.4827 256.558 66.4827C256.558 66.4827 256.555 66.4532 256.548 66.3991C256.539 66.3464 256.528 66.2636 256.494 66.163C256.459 66.0639 256.412 65.9393 256.319 65.8069C256.227 65.6745 256.096 65.5251 255.89 65.4013C255.788 65.3378 255.668 65.2828 255.536 65.2364C255.469 65.2147 255.4 65.1946 255.327 65.1814L255.272 65.1698L255.211 65.1605L255.116 65.1466C255.058 65.1357 254.98 65.1303 254.899 65.1272C254.817 65.121 254.738 65.1195 254.663 65.1226C254.585 65.1234 254.506 65.1257 254.428 65.135C254.35 65.1427 254.271 65.1505 254.194 65.1652C254.104 65.1799 254.017 65.2054 253.929 65.2271C253.936 64.6326 253.916 64.0381 253.857 63.449C254.627 63.3399 255.49 63.4149 256.446 63.8159C260.474 65.5081 258.48 73.232 252.123 73.5532C252.287 73.2118 252.435 72.8651 252.573 72.5144C255.978 71.5266 257.231 68.1725 256.523 66.4347Z" fill="#F8D0B7"/>
<path d="M254.548 65.654C254.605 65.6416 254.661 65.6346 254.719 65.6276C254.777 65.6176 254.831 65.6129 254.881 65.6106C254.931 65.6067 254.983 65.6029 255.052 65.606L255.148 65.6067L255.172 65.6075H255.183H255.189C255.184 65.6067 255.206 65.6091 255.178 65.606H255.18L255.217 65.6091C255.268 65.6114 255.316 65.6191 255.364 65.6245C255.459 65.64 255.551 65.6625 255.635 65.6942C255.976 65.8243 256.207 66.0511 256.347 66.2121C256.416 66.2941 256.471 66.3599 256.505 66.4095C256.516 66.4257 256.515 66.4234 256.523 66.4342C257.231 68.1721 255.978 71.5262 252.573 72.5132C253.222 70.8597 253.606 69.1103 253.797 67.3686C253.852 66.8693 253.891 66.3684 253.914 65.8653C254.067 65.8003 254.22 65.7314 254.377 65.6919C254.433 65.6749 254.49 65.6648 254.548 65.654Z" fill="#FFB7A1"/>
<path d="M254.429 65.135C254.507 65.1249 254.585 65.1226 254.662 65.1219C254.738 65.1188 254.816 65.1203 254.899 65.1265C254.981 65.1304 255.059 65.1358 255.117 65.1466L255.21 65.1606L255.272 65.1698L255.327 65.1815C255.399 65.1946 255.47 65.2147 255.536 65.2364C255.669 65.2821 255.788 65.3378 255.89 65.4013C256.096 65.5252 256.227 65.6738 256.319 65.8069C256.413 65.9393 256.459 66.0631 256.493 66.163C256.527 66.2636 256.54 66.3457 256.548 66.3991C256.554 66.4533 256.557 66.4819 256.557 66.4819C256.557 66.4819 256.538 66.4548 256.523 66.4347C256.515 66.4239 256.516 66.4262 256.504 66.4092C256.471 66.3604 256.416 66.2946 256.347 66.2125C256.206 66.0515 255.976 65.8247 255.635 65.6947C255.551 65.6629 255.458 65.6405 255.364 65.625C255.315 65.6196 255.268 65.6119 255.217 65.6095L255.18 65.6064H255.178C255.205 65.6095 255.183 65.6072 255.189 65.608H255.183H255.171L255.148 65.6072L255.052 65.6057C254.982 65.6026 254.93 65.6072 254.881 65.6111C254.83 65.6134 254.777 65.618 254.718 65.6281C254.661 65.6351 254.604 65.642 254.547 65.6544C254.491 65.6653 254.433 65.6753 254.377 65.6924C254.22 65.7318 254.067 65.8007 253.913 65.8658C253.923 65.6537 253.927 65.4408 253.929 65.2271C254.018 65.2055 254.104 65.1799 254.193 65.1652C254.271 65.1505 254.35 65.1428 254.429 65.135Z" fill="#FFA792"/>
<path d="M236.166 65.4183C236.166 65.4183 236.342 68.4582 234.933 68.1323C232.203 67.5053 231.885 73.4085 236.16 71.4299C237.774 70.6837 237.526 65.5313 237.526 65.5313L236.166 65.4183Z" fill="#F48470"/>
<path d="M231.454 73.4824C231.374 74.7488 230.265 75.7095 228.977 75.6274C227.689 75.5454 226.709 74.4531 226.788 73.1867C226.869 71.9203 227.979 70.9604 229.267 71.0417C230.555 71.1238 231.535 72.216 231.454 73.4824Z" fill="#FFB7A1"/>
<path d="M248.278 73.0674C248.197 74.3346 247.088 75.2944 245.798 75.2124C244.512 75.1311 243.532 74.0396 243.611 72.7732C243.693 71.5068 244.801 70.5469 246.088 70.6282C247.377 70.7095 248.358 71.8025 248.278 73.0674Z" fill="#FFB7A1"/>
<path d="M227.305 63.5708C227.305 63.5708 227.371 63.4849 227.514 63.3595C227.585 63.2975 227.673 63.2186 227.783 63.1458C227.89 63.0676 228.017 62.9887 228.161 62.909C228.304 62.8292 228.465 62.751 228.638 62.6806C228.814 62.6125 229 62.5397 229.201 62.4902C229.399 62.4306 229.609 62.3934 229.823 62.3586C230.038 62.3199 230.26 62.316 230.479 62.2959C230.699 62.2966 230.921 62.2982 231.137 62.3114C231.352 62.3338 231.563 62.3617 231.764 62.3934C231.966 62.4383 232.158 62.4871 232.339 62.5343C232.522 62.5854 232.685 62.655 232.837 62.7123C232.988 62.7727 233.126 62.8254 233.242 62.8935C233.359 62.9554 233.46 63.0142 233.542 63.0614C233.704 63.1559 233.793 63.2186 233.793 63.2186C233.793 63.2186 233.68 63.217 233.494 63.2C233.401 63.1923 233.288 63.183 233.159 63.1675C233.035 63.1481 232.889 63.1412 232.733 63.1288C232.578 63.1187 232.413 63.0916 232.237 63.0831C232.061 63.0738 231.877 63.0638 231.689 63.0467C231.498 63.0413 231.305 63.0405 231.106 63.0297C230.909 63.032 230.71 63.0336 230.51 63.0367C230.409 63.0413 230.309 63.0475 230.211 63.0529C230.111 63.0591 230.012 63.0584 229.915 63.0715C229.817 63.0823 229.72 63.0909 229.624 63.0986C229.527 63.1032 229.435 63.1241 229.341 63.1342C229.153 63.1536 228.975 63.1861 228.802 63.2124C228.715 63.224 228.634 63.2472 228.554 63.2604C228.472 63.2759 228.393 63.2883 228.319 63.3084C228.17 63.3401 228.03 63.3711 227.909 63.4028C227.783 63.4315 227.677 63.464 227.586 63.4872C227.501 63.5151 227.426 63.5305 227.381 63.5484C227.33 63.5631 227.305 63.5708 227.305 63.5708Z" fill="#161616"/>
<path d="M245.765 62.5605C245.765 62.5605 245.696 62.4769 245.55 62.3546C245.475 62.2974 245.386 62.2199 245.275 62.1503C245.164 62.076 245.033 62.0009 244.889 61.925C244.744 61.8507 244.581 61.7795 244.403 61.7137C244.224 61.6518 244.036 61.5852 243.834 61.5434C243.635 61.4884 243.424 61.4582 243.209 61.4304C242.993 61.3986 242.772 61.4017 242.552 61.3886C242.33 61.3963 242.111 61.4056 241.895 61.4265C241.68 61.4551 241.47 61.49 241.268 61.5295C241.069 61.5798 240.879 61.6347 240.699 61.6881C240.521 61.7439 240.359 61.8197 240.209 61.8809C240.059 61.9467 239.923 62.0055 239.81 62.0752C239.695 62.141 239.596 62.2037 239.517 62.2532C239.355 62.3539 239.27 62.4189 239.27 62.4189C239.27 62.4189 239.381 62.415 239.568 62.391C239.66 62.381 239.773 62.3678 239.9 62.3484C240.026 62.3237 240.169 62.3128 240.325 62.2943C240.479 62.2803 240.644 62.2486 240.821 62.2331C240.997 62.2192 241.178 62.2021 241.367 62.1789C241.556 62.1689 241.752 62.1603 241.949 62.1425C242.146 62.1379 242.345 62.1348 242.545 62.1294C242.645 62.1317 242.745 62.134 242.845 62.1363C242.943 62.1394 243.042 62.1356 243.141 62.1472C243.238 62.1549 243.336 62.1596 243.432 62.1627C243.529 62.1658 243.623 62.1828 243.716 62.1898C243.905 62.2029 244.084 62.23 244.258 62.2517C244.344 62.2579 244.426 62.2803 244.507 62.2904C244.589 62.3028 244.669 62.3136 244.743 62.3291C244.893 62.3577 245.034 62.3833 245.157 62.4119C245.283 62.4359 245.39 62.4646 245.479 62.4847C245.568 62.511 245.642 62.5242 245.69 62.5396C245.739 62.552 245.765 62.5605 245.765 62.5605Z" fill="#050607"/>
<path d="M241.343 65.54C241.108 66.4085 241.624 67.2887 242.494 67.5062C243.363 67.7237 244.258 67.1966 244.491 66.3272C244.726 65.4595 244.211 64.5778 243.341 64.3603C242.472 64.1435 241.577 64.6715 241.343 65.54Z" fill="#050607"/>
<path d="M241.998 65.2496C241.914 65.5639 242.127 65.8898 242.476 65.9765C242.825 66.0647 243.176 65.8805 243.261 65.5654C243.346 65.2511 243.131 64.9252 242.783 64.8385C242.434 64.7503 242.083 64.9353 241.998 65.2496Z" fill="white"/>
<path d="M232.101 65.1618C232.336 66.0303 231.82 66.9112 230.951 67.1287C230.081 67.3463 229.187 66.8191 228.953 65.9498C228.718 65.0813 229.233 64.2004 230.103 63.9828C230.973 63.7661 231.867 64.294 232.101 65.1618Z" fill="#050607"/>
<path d="M231.446 64.8717C231.531 65.1859 231.317 65.5118 230.968 65.5985C230.619 65.6868 230.268 65.5025 230.183 65.1867C230.098 64.8732 230.313 64.5473 230.661 64.4606C231.009 64.3724 231.362 64.5574 231.446 64.8717Z" fill="white"/>
<path d="M247.174 58.0994C247.174 58.0994 252.626 74.788 247.637 79.7778C247.637 79.7778 254.884 75.806 255.544 57.5931L247.174 58.0994Z" fill="#161616"/>
<path d="M254.524 61.5771C256.397 61.276 256.527 53.2889 256.243 52.2005C255.266 48.457 249.922 46.1572 246.659 44.9334C241.519 43.0066 235.058 42.69 230.409 46.0287C227.918 47.8192 226.695 50.3381 225.533 53.0838C225.318 53.59 222.997 59.9732 222.983 59.9732C222.984 59.9732 240.682 60.8742 240.542 60.8665L242.215 60.9517C242.215 60.9517 253.207 61.7884 254.524 61.5771Z" fill="#161616"/>
<path d="M268.431 111.23H268.315C266.963 111.237 265.646 111.712 264.479 112.409C265.719 114.033 267.112 115.53 268.903 116.57C269.021 116.639 269.135 116.699 269.246 116.754C269.477 116.488 269.693 116.21 269.884 115.913C271.127 113.989 271.303 111.275 268.431 111.23Z" fill="#E8B79E"/>
<path d="M229.206 160.505C229.206 160.505 230.093 187.741 230.152 190.277C230.211 192.813 233.737 215.512 234.163 221.074C234.591 226.636 233.063 238.064 231.825 242.62L230.323 246.485C230.323 246.485 235.142 248.413 237.016 247.574C239.963 246.252 240.554 241.569 241.296 238.814C242.083 235.892 242.666 232.866 242.541 229.827C242.42 226.905 240.815 224.687 240.203 221.901C238.537 214.314 241.375 206.464 241.78 198.874C242.141 192.101 241.231 185.345 240.217 178.664C239.271 172.434 242.156 166.916 241.858 160.753C241.858 160.753 230.366 152.567 229.077 159.215" fill="#EFC8B1"/>
<path d="M231.294 243.984C231.22 244.319 232.204 244.675 232.427 244.775C234.05 245.511 236.625 246.221 237.961 244.573C239.594 242.567 239.969 239.087 240.661 236.664C241.443 233.923 242.258 230.77 242.015 227.89L241.901 226.533C241.901 226.533 245.719 228.866 245.479 232.105C245.239 235.345 241.981 240.776 241.778 244.164C241.652 246.252 240.637 248.328 238.931 249.568C236.325 251.463 231.824 251.328 229.037 249.899C228.007 249.37 227.194 246.914 228.544 246.293C230.227 245.52 232.949 237.61 232.665 237.343L231.825 242.619C231.825 242.619 231.294 243.981 231.294 243.984Z" fill="#122738"/>
<path d="M245.299 232.906C245.299 232.906 244.217 239.879 244.738 243.78L243.602 244.155L242.469 238.923L245.299 232.906Z" fill="#312E2F"/>
<path d="M255.05 232.906C255.05 232.906 254.136 243.344 254.658 247.247L252.998 247.293L252.221 238.923L255.05 232.906Z" fill="#0C1B26"/>
<path d="M237.843 160.505C237.843 160.505 239.845 187.741 239.904 190.277C239.962 192.813 243.488 215.512 243.915 221.074C244.342 226.636 242.815 238.064 241.577 242.62L240.075 246.485C240.075 246.485 244.895 248.413 246.767 247.574C249.714 246.252 250.306 241.569 251.048 238.814C251.835 235.892 252.418 232.866 252.293 229.827C252.173 226.905 250.567 224.687 249.954 221.901C248.288 214.314 251.126 206.464 251.531 198.874C251.893 192.101 250.982 185.345 249.969 178.664C249.023 172.434 251.907 166.916 251.609 160.753C251.609 160.753 239.003 152.567 237.714 159.215" fill="#F8D0B7"/>
<path d="M241.046 243.984C240.972 244.319 241.955 244.675 242.178 244.775C243.802 245.511 246.376 246.221 247.713 244.573C249.347 242.567 249.72 239.087 250.412 236.664C251.195 233.923 252.009 230.77 251.767 227.89L251.653 226.533C251.653 226.533 255.471 228.866 255.231 232.105C254.99 235.345 251.733 240.776 251.529 244.164C251.404 246.252 250.389 248.328 248.683 249.568C246.077 251.463 241.575 251.328 238.789 249.899C237.758 249.37 236.946 246.914 238.296 246.293C239.978 245.52 242.701 237.61 242.417 237.343L241.577 242.619C241.577 242.619 241.047 243.981 241.046 243.984Z" fill="#122738"/>
<path d="M250.584 101.985C251.532 97.5075 254.847 92.9303 255.05 91.9248C249.824 86.7043 245.16 84.8503 244.062 84.5082L237.564 84.5368C235.826 85.2436 234.074 85.9155 232.33 86.6075C231.674 86.8668 231.062 87.0039 230.649 87.5744C230.142 88.2726 229.885 89.4693 229.551 90.279C228.638 92.4922 227.699 94.7386 227.249 97.1104C226.958 98.6416 227.32 100.291 227.94 101.985H250.584Z" fill="#F8D0B7"/>
<path d="M257.092 136.191C255.029 130.288 252.245 124.588 251.205 118.379C247.588 119.912 233.837 119.444 231.156 117.073C230.569 124.787 226.613 132.162 224.734 139.673C223.56 144.367 222.58 149.14 222.403 153.988C222.22 159.06 224.048 174.453 224.42 180.119C239.314 189.756 256.24 180.513 256.915 178.765C260.454 169.602 260.282 155.895 259.406 146.024C259.104 142.613 258.203 139.373 257.092 136.191Z" fill="#122738"/>
<path d="M224.734 139.673C224.656 139.983 224.582 140.296 224.506 140.607C229.799 143.44 250.428 145.144 258.221 139.761C257.887 138.56 257.504 137.371 257.092 136.191C255.11 130.521 252.468 125.035 251.34 119.109L248.186 119.037C244.927 119.414 240.23 119.321 236.523 118.773L232.194 118.674C232.194 118.674 230.634 130.495 225.611 136.594C225.289 137.619 224.991 138.645 224.734 139.673Z" fill="#0B1C28"/>
<path d="M237.088 95.7923C237.075 95.5694 237.047 95.3526 237.018 95.1351C237.013 95.0987 237.007 95.0639 237.001 95.0267C236.62 92.4753 235.16 90.3404 233.284 88.9168C230.927 87.2123 228.418 85.7438 225.948 84.2165C220.988 81.2069 216.735 78.784 211.718 75.8687C210.162 72.9984 208.583 70.1459 206.939 67.339C206.109 65.9363 205.279 64.5345 204.345 63.203C203.294 61.9769 202.528 60.5572 201.778 59.0949C200.263 56.2006 198.957 53.1135 196.873 50.6155C195.734 49.3057 194.495 48.1129 193.198 46.9889C193.315 47.1917 197.241 54.0378 196.838 60.8978C196.838 60.8978 196.83 60.9001 196.825 60.9016C197.296 61.1788 197.763 61.4706 198.234 61.747L198.743 62.055L198.997 62.2091C199.091 62.2579 199.172 62.3159 199.17 62.3678C199.301 62.6418 199.432 63.1063 199.548 63.491C200.016 65.115 200.498 66.7445 201.069 68.3275C202.206 71.4889 203.631 74.535 205.605 77.1367C206.591 78.4279 207.699 79.6393 208.964 80.6263C210.207 81.6311 211.468 82.6111 212.739 83.5779C215.282 85.5093 217.129 86.8515 219.79 88.6149C222.454 90.3737 225.174 92.0527 228.013 93.5327C230.88 94.9571 233.812 96.2978 237.103 96.7979C237.106 96.7406 237.099 96.6856 237.1 96.6283C237.109 96.4689 237.115 96.1801 237.088 95.7923Z" fill="#EFC8B1"/>
<path d="M194.994 50.6395C194.905 51.6272 194.354 54.1492 193.981 55.0464C193.272 54.9395 192.577 54.6469 191.961 54.2762C191.278 53.8876 190.752 53.3132 190.094 52.8061C189.761 52.5654 189.403 52.3525 188.997 52.2132C188.588 52.1048 188.125 51.9725 187.585 52.3169C187.522 52.3657 187.434 52.4392 187.394 52.5793C187.341 52.7264 187.382 52.7698 187.382 52.8665C187.418 52.9981 187.467 53.1073 187.52 53.204C187.63 53.396 187.75 53.5694 187.877 53.7312C188.13 54.0586 188.403 54.3598 188.681 54.6539C189.771 55.8414 191 56.8872 192.129 58.0026L192.962 58.8727C193.262 59.1707 193.613 59.3991 193.977 59.5903C194.706 59.9735 195.487 60.2072 196.193 60.5417C196.447 60.6709 196.693 60.8211 196.942 60.9697V53.4092C195.978 53.1228 195.843 51.1295 194.994 50.6395Z" fill="#EFC8B1"/>
<path d="M219.815 80.5684C219.815 80.5684 221.135 82.7111 220.717 87.0112C220.299 91.312 218.506 90.476 218.506 90.476C218.506 90.476 222.987 93.8804 227.466 96.2701C231.947 98.6597 231.767 87.2503 231.767 87.2503C231.767 87.2503 220.287 79.1433 219.815 80.5684Z" fill="white"/>
<path d="M231.068 118.368C231.052 118.674 230.916 119.06 231.132 119.209C238.015 123.942 251.36 119.004 251.265 118.418C250.802 115.595 250.727 112.679 251.269 109.86C252.49 103.513 257.174 97.3624 255.124 90.6828C255.117 90.6595 255.11 90.6355 255.101 90.6123C254.411 88.5548 247.613 86.169 247.021 85.7859C247.221 86.3084 246.672 86.9114 246.484 87.1467C245.557 88.2993 244.1 89.0192 242.708 89.428C241.092 89.9032 239.397 90.0952 237.716 90.0302C236.773 89.993 235.826 89.8723 234.901 89.6834C234.334 89.5681 233.633 89.3869 233.255 88.9202C232.559 88.0632 233.217 86.8162 233.646 85.9863C233.646 85.9863 232.823 86.2944 231.768 86.3146C230.459 86.3393 226.452 83.6819 226.452 83.6819C225.714 85.9531 226.843 94.9906 225.965 97.1913C225.412 98.5762 225.123 100.101 225.393 101.568C225.83 103.938 227.605 105.741 228.365 107.987C229.329 110.838 231.232 115.263 231.068 118.368Z" fill="white"/>
<path d="M230.812 115.648C230.812 115.648 228.882 130.3 222.391 135.397C217.531 139.212 247.961 143.547 257.226 136.457C257.62 136.154 257.678 135.579 257.356 135.2C256.845 134.599 256.059 133.352 255.049 130.766C253.172 125.958 250.98 116.105 250.98 116.105L230.812 115.648Z" fill="white"/>
<path d="M271.63 116.615C271.136 117.234 270.281 117.371 268.904 116.57C267.04 115.487 265.606 113.914 264.329 112.214C262.7 110.047 260.762 108.124 258.909 106.138C256.407 103.457 253.782 100.823 251.485 97.9614C249.609 95.6252 248.113 93.8502 248.989 90.589C249.122 90.092 249.316 89.5973 249.657 89.2072C250.173 88.6142 250.993 88.461 251.74 88.55C253.604 88.7737 254.851 90.0858 256.021 91.3917C257.24 92.7518 258.593 94.0042 259.87 95.3117C262.595 98.1062 265.26 100.984 267.507 104.18C268.972 106.265 270.534 108.327 271.549 110.683C272.581 113.078 272.638 115.353 271.63 116.615Z" fill="#EFC8B1"/>
<path d="M268.431 111.23H268.315C266.963 111.237 265.646 111.712 264.479 112.409C265.719 114.033 267.112 115.53 268.903 116.57C269.021 116.639 269.135 116.699 269.246 116.754C269.477 116.488 269.693 116.21 269.884 115.913C271.127 113.989 271.303 111.275 268.431 111.23Z" fill="#E8B79E"/>
<path d="M269.714 111.835C269.676 111.84 269.637 111.846 269.6 111.851C268.095 112.079 266.72 112.886 265.586 113.906C263.175 116.073 261.191 118.92 259.032 121.349C257.35 123.24 255.667 125.336 253.809 127.171C253.925 127.295 254.024 127.434 254.098 127.596C254.824 129.203 255.095 130.201 256.095 131.655C257.905 128.403 265.482 123.694 269.696 119.2C270.528 118.311 271.326 117.365 271.831 116.257C272.782 114.174 272.563 111.462 269.714 111.835Z" fill="#EFC8B1"/>
<path d="M253.702 129.796C253.699 129.801 251.652 132.166 251.257 132.126C250.862 132.087 250.342 131.58 250.342 131.58L253.027 128.084C253.027 128.084 250.195 130.767 249.507 130.812C248.818 130.858 248.304 130.294 248.304 130.294L251.931 126.493C251.931 126.493 249.54 129.334 248.717 129.593C247.892 129.854 247.26 129.334 247.26 129.334L250.763 125.066L250.639 125.738C250.639 125.738 248.912 127.048 248.24 126.924C247.569 126.8 247.038 126.405 247.038 126.405C247.038 126.405 248.878 125.106 249.826 124.174C250.773 123.243 251.727 123.395 251.727 123.395C253.424 124.798 254.477 126.939 255.56 128.845C256.397 130.318 256.42 133.141 256.42 133.141C256.42 133.141 255.893 134.093 253.702 129.796Z" fill="#F8D0B7"/>
<path d="M227.987 57.9306C227.987 57.9306 224.976 63.7239 225.145 72.0903C225.145 72.0903 219.511 64.7194 226.864 54.1879L227.987 57.9306Z" fill="#161616"/>
<path d="M257.537 106.405C257.537 106.405 264.24 105.45 265.597 100.431C265.597 100.431 255.893 89.2896 251.705 87.9109C247.517 86.5331 245.685 91.3518 247.677 94.7369C249.668 98.122 257.537 106.405 257.537 106.405Z" fill="white"/>
<path d="M226.05 96.9316C226.05 96.9316 226.341 95.4763 227.505 93.8639C228.67 92.2507 226.334 93.2462 224.073 94.2928C224.073 94.2928 226.066 95.4036 226.063 96.1212C226.061 96.5245 226.05 96.9316 226.05 96.9316Z" fill="#E1E4E5"/>
<path d="M236.506 75.5679C236.745 75.5679 236.951 75.4053 237.012 75.1739C237.25 74.2504 238.081 73.5676 239.08 73.5676C240.078 73.5676 240.91 74.2504 241.148 75.1739C241.208 75.4053 241.415 75.5679 241.654 75.5679C241.989 75.5679 242.254 75.2544 242.172 74.9285C241.823 73.5421 240.576 72.5141 239.08 72.5141C237.584 72.5141 236.337 73.5421 235.988 74.9285C235.906 75.2544 236.17 75.5679 236.506 75.5679Z" fill="#F05B4E"/>
</svg>
